<?xml version="1.0" encoding="UTF-8"?>
<svg version="1.1" xmlns="http://www.w3.org/2000/svg" width="512" height="512">
<path d="M0 0 C168.96 0 337.92 0 512 0 C512 168.96 512 337.92 512 512 C343.04 512 174.08 512 0 512 C0 343.04 0 174.08 0 0 Z " fill="#F7F6F6" transform="translate(0,0)"/>
<path d="M0 0 C1.01964844 -0.02578125 2.03929687 -0.0515625 3.08984375 -0.078125 C6.52705748 0.30127836 8.39211496 1.05840858 11.0625 3.25 C11.3046875 5.125 11.3046875 5.125 10.9375 7.25 C10.56172909 13.85283178 14.23785759 18.16547538 18.0625 23.25 C18.63742187 24.02085938 19.21234375 24.79171875 19.8046875 25.5859375 C23.68540054 30.39659099 27.37478571 32.85517293 33.0625 35.25 C33.0625 35.91 33.0625 36.57 33.0625 37.25 C33.949375 37.476875 34.83625 37.70375 35.75 37.9375 C42.13479459 40.46732427 45.1364088 45.63912362 48.6328125 51.26171875 C50.07371458 53.51148566 50.07371458 53.51148566 53.0625 55.25 C53.0625 55.91 53.0625 56.57 53.0625 57.25 C54.7125 57.58 56.3625 57.91 58.0625 58.25 C58.0625 58.91 58.0625 59.57 58.0625 60.25 C59.238125 60.5284375 59.238125 60.5284375 60.4375 60.8125 C65.59193177 62.8564988 69.69946906 65.86176025 74.0625 69.25 C74.82691406 69.8378125 75.59132813 70.425625 76.37890625 71.03125 C82.65112574 76.48334503 84.24103587 82.12394801 85.0625 90.25 C86.47628598 111.8080132 82.31711671 129.44368259 74.0625 149.25 C73.58167969 150.40371094 73.10085938 151.55742187 72.60546875 152.74609375 C70.61410055 157.26826408 68.50150121 161.72761309 66.375 166.1875 C65.75141602 167.49944336 65.75141602 167.49944336 65.11523438 168.83789062 C64.09883865 170.97582646 63.0812358 173.11317849 62.0625 175.25 C61.4025 175.25 60.7425 175.25 60.0625 175.25 C59.815 176.075 59.5675 176.9 59.3125 177.75 C57.87545189 181.77373471 56.03895485 185.46979024 54.0625 189.25 C53.4025 189.25 52.7425 189.25 52.0625 189.25 C51.4025 191.56 50.7425 193.87 50.0625 196.25 C49.4025 196.25 48.7425 196.25 48.0625 196.25 C47.79695312 196.95511719 47.53140625 197.66023437 47.2578125 198.38671875 C45.99751033 201.40567786 44.52292006 204.20185076 42.9375 207.0625 C42.39867187 208.03832031 41.85984375 209.01414062 41.3046875 210.01953125 C40.89476562 210.75558594 40.48484375 211.49164063 40.0625 212.25 C39.4025 212.25 38.7425 212.25 38.0625 212.25 C37.815 213.11625 37.5675 213.9825 37.3125 214.875 C35.98449976 218.46060064 34.37619152 221.21327987 32.0625 224.25 C31.4025 224.25 30.7425 224.25 30.0625 224.25 C29.794375 224.806875 29.52625 225.36375 29.25 225.9375 C27.09210422 230.13971809 24.55656053 234.09392185 22 238.0625 C21.49339844 238.85269531 20.98679687 239.64289063 20.46484375 240.45703125 C19.77068359 241.34455078 19.77068359 241.34455078 19.0625 242.25 C18.4025 242.25 17.7425 242.25 17.0625 242.25 C16.876875 242.91 16.69125 243.57 16.5 244.25 C15.09061352 247.1913283 13.63105553 249.02444422 11.47265625 251.4375 C10.83593994 252.15292969 10.19922363 252.86835938 9.54321289 253.60546875 C9.05457764 254.14816406 8.56594238 254.69085938 8.0625 255.25 C8.55838623 255.014021 9.05427246 254.77804199 9.56518555 254.53491211 C44.25360583 238.15702508 78.83540307 231.60584097 117.125 231.875 C118.27838867 231.87898804 119.43177734 231.88297607 120.62011719 231.88708496 C134.30455478 231.94247796 147.93709908 232.16359912 161.5625 233.5 C162.67890869 233.60908691 163.79531738 233.71817383 164.94555664 233.83056641 C178.95695411 235.48868138 193.3259867 239.53614729 203.0625 250.25 C220.19069404 272.66958255 230.47533638 303.42142039 230.4375 331.5 C230.43661377 332.6849707 230.43572754 333.86994141 230.43481445 335.09082031 C230.27481334 346.95201937 227.80689027 356.42898379 223.0625 367.25 C222.4025 367.25 221.7425 367.25 221.0625 367.25 C220.753125 368.24 220.753125 368.24 220.4375 369.25 C214.84669392 381.44812236 204.16220143 389.22550327 192.0625 394.25 C182.80300263 397.31302494 173.42187418 399.2917918 163.8125 400.875 C162.54905762 401.08737305 161.28561523 401.29974609 159.98388672 401.51855469 C150.374595 403.10311129 140.77415895 404.48198108 131.0625 405.25 C130.01690918 405.33540039 128.97131836 405.42080078 127.89404297 405.50878906 C117.57136527 406.2806039 107.28573 406.48923585 96.9375 406.5 C96.08143158 406.50167175 95.22536316 406.50334351 94.34335327 406.50506592 C82.05462674 406.50650053 70.13495889 406.00301318 58.04150391 403.63037109 C55.06270089 403.05783531 52.06200884 402.63652827 49.0625 402.1875 C45.44281633 401.62192443 42.45454574 400.6146161 39.0625 399.25 C35.49577169 398.16143525 31.89744246 397.17793762 28.30078125 396.19335938 C24.11771117 395.00507133 20.74370884 393.63272248 17.0625 391.25 C15.76580498 390.71033502 14.45330722 390.20635095 13.125 389.75 C9.62705285 388.495518 6.35674193 386.97947701 3.0625 385.25 C3.0625 384.59 3.0625 383.93 3.0625 383.25 C2.35996094 382.99992187 1.65742188 382.74984375 0.93359375 382.4921875 C-15.85716532 375.22761419 -33.79525963 358.78188247 -41.23046875 342.078125 C-45.60247867 330.77370157 -45.47850351 317.49438964 -40.9375 306.25 C-41.5459375 306.76046875 -42.154375 307.2709375 -42.78125 307.796875 C-74.24585649 333.8939898 -111.1177068 361.27702515 -153.9375 358.25 C-168.73580955 356.41739201 -182.57490812 348.53981429 -191.84765625 336.83984375 C-201.32426317 324.24569886 -206.5387142 311.89891195 -206.375 296 C-206.36960205 294.97511475 -206.3642041 293.95022949 -206.35864258 292.89428711 C-206.09958004 279.49368846 -204.08646408 265.98931004 -199.65356445 253.31567383 C-198.62500622 250.34853055 -197.78418237 247.33586163 -196.9375 244.3125 C-196.59847656 243.11625 -196.25945312 241.92 -195.91015625 240.6875 C-195.58917969 239.553125 -195.26820313 238.41875 -194.9375 237.25 C-193.26879066 231.37358815 -191.39549989 225.85423974 -188.9375 220.25 C-188.34501457 218.62831452 -187.76276381 217.00287418 -187.1875 215.375 C-184.61647375 208.20579218 -181.6532408 201.20228404 -178.73193359 194.17089844 C-177.09496047 190.21278394 -175.51769783 186.23101341 -173.9375 182.25 C-173.1879472 180.37482118 -172.43795081 178.49981961 -171.6875 176.625 C-171.35234375 175.78710938 -171.0171875 174.94921875 -170.671875 174.0859375 C-170.42953125 173.48007813 -170.1871875 172.87421875 -169.9375 172.25 C-169.2775 172.25 -168.6175 172.25 -167.9375 172.25 C-167.56625 170.991875 -167.195 169.73375 -166.8125 168.4375 C-165.23014215 163.68299754 -163.01363798 159.50750059 -160.55078125 155.15625 C-158.86916358 152.12689516 -157.33407802 149.04999377 -155.8125 145.9375 C-153.77067299 141.8114184 -151.55187596 138.04506187 -148.9375 134.25 C-148.15635705 132.83899179 -147.38653076 131.42168892 -146.625 130 C-144.26333831 125.68236084 -141.54763317 121.71533173 -138.6875 117.71484375 C-137.07453339 115.44300908 -135.52805068 113.14194682 -134 110.8125 C-121.04412057 91.34476494 -105.73091233 74.02584559 -89.3125 57.4375 C-88.52472168 56.63658936 -87.73694336 55.83567871 -86.92529297 55.01049805 C-82.50577149 50.58498056 -77.99973059 46.56708389 -72.96728516 42.84887695 C-70.78055505 41.12637329 -68.88929459 39.23192948 -66.9375 37.25 C-21.59658592 0.32680836 -21.59658592 0.32680836 0 0 Z " fill="#B25A2E" transform="translate(243.9375,52.75)"/>
<path d="M0 0 C3.78589442 1.5289189 5.48328832 2.89724153 7.22265625 6.609375 C8.24717178 9.3854816 9.15582727 12.16444545 10 15 C10.495 16.485 10.495 16.485 11 18 C12.93090961 18.91762305 12.93090961 18.91762305 15.25 19.5 C22.20979772 21.65841828 26.55058323 24.46426297 30 31 C32.3859652 37.32654885 32.36690248 43.47870167 32.375 50.1875 C32.39949219 51.26708984 32.42398438 52.34667969 32.44921875 53.45898438 C32.45501953 55.01649414 32.45501953 55.01649414 32.4609375 56.60546875 C32.46915527 57.54543701 32.47737305 58.48540527 32.48583984 59.45385742 C31.85165523 62.77743098 30.6654658 63.97270251 28 66 C25.3503353 66.05556692 22.98949347 65.94479839 20.375 65.6875 C15.85373819 65.44859649 12.90783692 65.46270876 8.9375 67.8125 C6.46719741 70.10204874 4.21611825 72.46547396 2 75 C-1.7283648 78.61870701 -4.63109695 80.76656943 -10 81 C-12.36486853 80.64208635 -13.65739458 80.31313273 -15.43603516 78.6875 C-18.94012783 73.87233329 -19.82551069 69.85643072 -20.375 64 C-21.5274233 54.59681401 -24.64173528 47.31422808 -29 39 C-31.17311072 32.48066783 -31.01046897 24.53941411 -28.5 18.125 C-25.99518735 13.30058972 -22.27923304 10.23645965 -18 7 C-17.26523437 6.42894531 -16.53046875 5.85789062 -15.7734375 5.26953125 C-10.43034216 1.17963464 -6.98668099 -0.86030027 0 0 Z " fill="#F8AE42" transform="translate(429,341)"/>
<path d="M0 0 C2.94263938 -0.25222623 4.99663784 -0.00112072 7.8125 0.9375 C10 3 10 3 10.06640625 4.81640625 C9.97166016 5.89728516 9.97166016 5.89728516 9.875 7 C9.49922909 13.60283178 13.17535759 17.91547538 17 23 C17.57492187 23.77085938 18.14984375 24.54171875 18.7421875 25.3359375 C22.62290054 30.14659099 26.31228571 32.60517293 32 35 C32 35.66 32 36.32 32 37 C32.886875 37.226875 33.77375 37.45375 34.6875 37.6875 C41.07229459 40.21732427 44.0739088 45.38912362 47.5703125 51.01171875 C49.01121458 53.26148566 49.01121458 53.26148566 52 55 C52 55.66 52 56.32 52 57 C53.65 57.33 55.3 57.66 57 58 C57 58.66 57 59.32 57 60 C58.175625 60.2784375 58.175625 60.2784375 59.375 60.5625 C68.37664984 64.13211976 78.547269 71.37915813 82.5 80.4375 C83.09348363 84.66607088 83.17389284 88.73962549 83 93 C80.8125 93.6875 80.8125 93.6875 78 94 C75.4375 92.625 75.4375 92.625 73 91 C70.80869466 90.30420546 70.80869466 90.30420546 69 90 C69 89.34 69 88.68 69 88 C68.175 87.773125 67.35 87.54625 66.5 87.3125 C56.54345661 83.57879623 47.97911948 76.39020246 42.09375 67.58203125 C38.62316129 62.56207259 33.64588527 59.12119781 28.79296875 55.55078125 C28.20128906 55.03902344 27.60960937 54.52726562 27 54 C27 53.34 27 52.68 27 52 C26.01 51.773125 25.02 51.54625 24 51.3125 C20.23893005 50.24761875 17.37323237 48.44981237 14.1328125 46.30859375 C10.60410458 44.14354402 6.8177873 42.58190724 3 41 C3 40.34 3 39.68 3 39 C2.40832031 38.90074219 1.81664062 38.80148438 1.20703125 38.69921875 C-4.67504936 36.83569233 -8.13723572 30.06274238 -10.88720703 24.93676758 C-14.01587986 18.81067759 -16.22328159 12.87950589 -17 6 C-13.77208445 3.8480563 -12.71599191 3.79913557 -9 4 C-9 3.34 -9 2.68 -9 2 C-6.03 2 -3.06 2 0 2 C0 1.34 0 0.68 0 0 Z " fill="#9E3911" transform="translate(245,53)"/>
<path d="M0 0 C-2.36416908 1.57611272 -4.61597678 2.88288715 -7.1328125 4.171875 C-8.33659546 4.79376709 -8.33659546 4.79376709 -9.56469727 5.42822266 C-10.40959717 5.86440918 -11.25449707 6.3005957 -12.125 6.75 C-18.15189639 9.88042856 -24.00151253 13.03128277 -29.50390625 17.0390625 C-31 18 -31 18 -33 18 C-33 18.66 -33 19.32 -33 20 C-34.57421875 21.11328125 -34.57421875 21.11328125 -36.6875 22.3125 C-40.32768493 24.49532694 -43.10639104 26.86525696 -46 30 C-47.29579647 31.36984198 -48.61992749 32.7151049 -50 34 C-50.66 34 -51.32 34 -52 34 C-52 34.66 -52 35.32 -52 36 C-56.30232558 40.76744186 -56.30232558 40.76744186 -60 42 C-60 42.66 -60 43.32 -60 44 C-63.72059304 48.08065044 -67.93886998 51.61925331 -72.109375 55.23046875 C-74.07908003 56.86863988 -74.07908003 56.86863988 -75 59 C-75.66 59 -76.32 59 -77 59 C-77.23203125 59.639375 -77.4640625 60.27875 -77.703125 60.9375 C-79 63 -79 63 -81.171875 63.6875 C-82.44804687 63.8421875 -82.44804687 63.8421875 -83.75 64 C-88.54018177 64.76144508 -91.15830658 66.11872993 -95 69 C-95.66 69 -96.32 69 -97 69 C-97 70.98 -97 72.96 -97 75 C-96.34 75.33 -95.68 75.66 -95 76 C-95 76.99 -95 77.98 -95 79 C-96.828125 80.46484375 -96.828125 80.46484375 -99.25 81.9375 C-102.63402292 84.01104346 -105.21287857 86.18597585 -108 89 C-109.68017 90.28760691 -111.38962219 91.53782565 -113.125 92.75 C-113.99382812 93.36359375 -114.86265625 93.9771875 -115.7578125 94.609375 C-118 96 -118 96 -120 96 C-120.84778901 75.91211049 -120.84778901 75.91211049 -116 68 C-114.515 67.505 -114.515 67.505 -113 67 C-112.67 66.01 -112.34 65.02 -112 64 C-110.29296875 62.24609375 -110.29296875 62.24609375 -108.1875 60.4375 C-107.50042969 59.83808594 -106.81335938 59.23867188 -106.10546875 58.62109375 C-104.13322663 57.10257709 -102.21413142 56.10706571 -100 55 C-99.31513275 53.67592331 -98.65129797 52.34090759 -98 51 C-96.35570171 49.31126121 -94.68615782 47.64694485 -93 46 C-92.0935705 44.9045152 -91.19753541 43.80034038 -90.3125 42.6875 C-89.549375 41.800625 -88.78625 40.91375 -88 40 C-87.34 40 -86.68 40 -86 40 C-85.773125 39.443125 -85.54625 38.88625 -85.3125 38.3125 C-83.98287265 35.96982323 -82.46608212 34.36473958 -80.5078125 32.53515625 C-78.9227444 30.98837729 -78.9227444 30.98837729 -77.4921875 28.99609375 C-64.82340465 12.66302169 -38.92320901 6.26629777 -19.6875 2 C-18.28346924 1.68820801 -18.28346924 1.68820801 -16.85107422 1.37011719 C-11.1260489 0.19401017 -5.84254599 -0.19058254 0 0 Z " fill="#9D3812" transform="translate(321,288)"/>
<path d="M0 0 C6.5241075 3.9144645 6.5241075 3.9144645 7.75390625 7.2109375 C7.95886719 8.15195312 8.16382813 9.09296875 8.375 10.0625 C9.8386309 16.88043217 9.8386309 16.88043217 14.50610352 21.77978516 C16.58127171 22.86272465 18.67813111 23.85165422 20.8125 24.8125 C22.25259309 25.4761728 23.69020175 26.14526904 25.125 26.8203125 C25.76050781 27.10793457 26.39601563 27.39555664 27.05078125 27.69189453 C29.01642079 28.80274238 30.3599682 29.96178049 31.8125 31.6875 C31.8125 32.3475 31.8125 33.0075 31.8125 33.6875 C33.2975 34.1825 33.2975 34.1825 34.8125 34.6875 C40.92660695 43.65195575 41.32514186 56.20314703 40.8125 66.6875 C40.76802734 68.09902344 40.76802734 68.09902344 40.72265625 69.5390625 C40.66980469 70.49554688 40.61695313 71.45203125 40.5625 72.4375 C40.51609375 73.29859375 40.4696875 74.1596875 40.421875 75.046875 C39.54267968 78.85672137 38.55976621 80.8574848 35.8125 83.6875 C31.48557088 84.44212892 27.13375028 83.82009496 22.78515625 83.453125 C16.63272961 83.13716586 13.31305387 83.89185481 8.61279297 87.95458984 C8.01869629 88.5264502 7.42459961 89.09831055 6.8125 89.6875 C6.25320801 90.21682129 5.69391602 90.74614258 5.11767578 91.29150391 C3.54424102 92.83145115 2.01645037 94.40405027 0.5 96 C-3.72170662 100.43465525 -6.62067192 102.78230578 -12.875 103.3125 C-17.4471979 103.25225142 -19.50475171 102.13920802 -22.6875 98.875 C-27.44977867 92.72611409 -27.87565574 86.76440504 -28.453125 79.21484375 C-29.35066475 69.93701438 -31.84904136 63.34771982 -36.3125 55.24609375 C-41.0976549 46.40707788 -41.55960613 36.55723939 -39.60546875 26.7734375 C-35.80296228 15.83472027 -25.53193894 7.01716375 -16.1875 0.6875 C-10.49944892 -1.56060049 -5.79212508 -2.38499268 0 0 Z M-18.1875 16.6875 C-18.78046875 17.1515625 -19.3734375 17.615625 -19.984375 18.09375 C-26.48871234 23.37449913 -30.50281159 28.25744637 -31.58203125 36.81640625 C-31.84308473 45.0057506 -30.22444617 51.32361172 -26.20483398 58.4230957 C-22.94239872 64.40882551 -22.18567851 69.9979128 -21.49804688 76.70898438 C-20.74061278 82.68644194 -19.21786775 86.14590567 -15.1875 90.6875 C-12.38398694 91.77357946 -10.1749498 92.07278618 -7.1875 91.6875 C-1.91838647 89.22110643 1.76236938 84.86915567 5.76171875 80.7109375 C8.78149773 77.73142224 10.14073188 76.69755856 14.46484375 76.6328125 C16.61892469 76.70881536 18.76829465 76.81358681 20.91992188 76.94140625 C24.28307863 77.04738153 26.29600174 77.0826206 29.01806641 75.00024414 C31.18284288 72.21018597 31.31557798 70.85813028 31.30859375 67.36328125 C31.30923828 66.33396484 31.30988281 65.30464844 31.31054688 64.24414062 C31.28057617 62.63829102 31.28057617 62.63829102 31.25 61 C31.25708984 59.94876953 31.26417969 58.89753906 31.27148438 57.81445312 C31.19942699 48.90705208 29.9182566 40.93129808 23.69921875 34.1953125 C19.94691901 31.1965802 14.68696192 28.6875 9.8125 28.6875 C9.52246094 27.79998047 9.52246094 27.79998047 9.2265625 26.89453125 C8.68892526 25.26298855 8.14300498 23.63415749 7.58984375 22.0078125 C7.02086563 20.3094557 6.49711 18.5957654 6 16.875 C4.19690786 13.55351448 2.16947625 12.36598812 -1.1875 10.6875 C-8.58270147 9.47517189 -12.46748291 12.19622732 -18.1875 16.6875 Z " fill="#9E3A11" transform="translate(430.1875,330.3125)"/>
<path d="M0 0 C0.10901505 2.83439137 0.18777904 5.66450203 0.25 8.5 C0.28351563 9.29148437 0.31703125 10.08296875 0.3515625 10.8984375 C0.48238727 18.87874847 -1.98411797 24.03480225 -7.3828125 29.84375 C-8.61988542 31.07297679 -9.86745767 32.29172221 -11.125 33.5 C-11.75792969 34.13164062 -12.39085937 34.76328125 -13.04296875 35.4140625 C-17.71824269 40 -17.71824269 40 -20 40 C-20 40.66 -20 41.32 -20 42 C-24.47058824 46 -24.47058824 46 -27 46 C-27.226875 46.5775 -27.45375 47.155 -27.6875 47.75 C-29.32741284 50.56127916 -31.47216681 51.97773345 -34 54 C-34.6837045 55.32467746 -35.34964186 56.65863633 -36 58 C-37.6436814 59.68933922 -39.3142876 61.35259924 -41 63 C-44.74946699 67.12340305 -48.17436882 71.46157803 -51.48046875 75.9453125 C-52.53187287 77.36700547 -53.59803249 78.77786044 -54.67578125 80.1796875 C-55.21589844 80.88351563 -55.75601563 81.58734375 -56.3125 82.3125 C-56.80363281 82.94800781 -57.29476562 83.58351563 -57.80078125 84.23828125 C-59.18425356 86.09872114 -59.18425356 86.09872114 -60 89 C-60.66 89 -61.32 89 -62 89 C-62.103125 89.5775 -62.20625 90.155 -62.3125 90.75 C-63.10124725 93.33135463 -64.35786022 94.87890278 -66 97 C-66.33 97.99 -66.66 98.98 -67 100 C-67.66 100 -68.32 100 -69 100 C-69.99 102.97 -70.98 105.94 -72 109 C-72.66 109 -73.32 109 -74 109 C-74.18175781 109.59167969 -74.36351562 110.18335938 -74.55078125 110.79296875 C-75.95667057 115.212508 -77.37527181 119.12540125 -80 123 C-84.07535675 116.43052493 -82.77998138 106.95723264 -81.1015625 99.6796875 C-80.17897829 96.08547065 -79.12370063 92.53664708 -78 89 C-77.34 89 -76.68 89 -76 89 C-75.88140625 88.44699219 -75.7628125 87.89398438 -75.640625 87.32421875 C-73.46630415 79.43567664 -69.08470078 72.0395907 -65 65 C-64.34 65 -63.68 65 -63 65 C-62.855625 64.38125 -62.71125 63.7625 -62.5625 63.125 C-62 61 -62 61 -61 59 C-60.34 59 -59.68 59 -59 59 C-58.91492188 58.45214844 -58.82984375 57.90429688 -58.7421875 57.33984375 C-56.28735184 49.60065131 -48.45444538 42.24222324 -43.25 36.0625 C-42.80285645 35.53148682 -42.35571289 35.00047363 -41.89501953 34.45336914 C-37.62112299 29.44497091 -33.13112805 25.10490244 -28 21 C-27.2575 20.2575 -26.515 19.515 -25.75 18.75 C-7 0 -7 0 0 0 Z " fill="#C1764D" transform="translate(283,115)"/>
<path d="M0 0 C0 0.66 0 1.32 0 2 C1.010625 2.144375 2.02125 2.28875 3.0625 2.4375 C4.361875 2.623125 5.66125 2.80875 7 3 C8.175625 3.04125 9.35125 3.0825 10.5625 3.125 C14.82731217 4.21058855 15.99182724 5.84744815 18.60546875 9.2265625 C21.35543481 12.72371821 24.79149581 14.92473875 28.625 17.0625 C33.94868934 20.11869203 35.37728217 22.05003461 37 28 C37.27402516 29.56194339 37.54455743 31.12450169 37.8125 32.6875 C38.54572383 36.58056939 39.71850547 39.80834369 41.4375 43.375 C45.56913675 52.02943438 47.47868964 60.42620726 47 70 C46.55269531 69.61328125 46.10539062 69.2265625 45.64453125 68.828125 C35.26127877 59.41603369 35.26127877 59.41603369 23 53 C23 52.34 23 51.68 23 51 C21.35 50.67 19.7 50.34 18 50 C18 49.34 18 48.68 18 48 C17.41734375 47.773125 16.8346875 47.54625 16.234375 47.3125 C13.38796646 45.6404838 12.1003903 43.72023189 10.25 41 C9.63640625 40.113125 9.0228125 39.22625 8.390625 38.3125 C7 36 7 36 7 34 C5.88625 33.566875 5.88625 33.566875 4.75 33.125 C2.43260203 32.17697356 0.22082885 31.15154089 -2 30 C-2 29.34 -2 28.68 -2 28 C-3.2375 27.7215625 -3.2375 27.7215625 -4.5 27.4375 C-14.22661201 23.4426415 -20.58641083 14.24355468 -25 5 C-25.42281068 1.42532789 -25.02628098 -0.49857077 -24 -4 C-16.0584803 -6.64717323 -7.48099383 -2.72151214 0 0 Z " fill="#F7AF44" transform="translate(279,60)"/>
<path d="M0 0 C3.1206302 1.68564161 5.3910874 3.78217479 7 7 C8.64335723 18.13001036 4.48591539 26.55342137 -1.70703125 35.453125 C-6.03397323 40.76300228 -11.55882663 45.99458779 -18.3984375 47.54296875 C-22.5293298 47.7968608 -24.46150591 47.38631098 -27.875 44.9375 C-32.84749365 38.06375878 -33.91371378 32.39913825 -33 24 C-32.22060204 20.89584607 -31.22571554 17.95484996 -30 15 C-29.34 15 -28.68 15 -28 15 C-27.67 13.68 -27.34 12.36 -27 11 C-26.34 11 -25.68 11 -25 11 C-24.67 10.01 -24.34 9.02 -24 8 C-22.109375 6.46484375 -22.109375 6.46484375 -19.75 4.9375 C-18.98171875 4.43089844 -18.2134375 3.92429688 -17.421875 3.40234375 C-11.70631156 0.09284814 -6.56051165 -1.05848511 0 0 Z " fill="#E1BBA7" transform="translate(137,205)"/>
<path d="M0 0 C2.06906677 4.13813353 -0.72050407 9.78258457 -2 14 C-3.14863645 17.02500489 -4.39554028 19.98449275 -5.69140625 22.94921875 C-7.00750613 26.01749937 -8.16455553 29.11537723 -9.3125 32.25 C-12.29590739 40.11969322 -16.13790247 47.53455588 -20 55 C-20.66 55 -21.32 55 -22 55 C-22.144375 55.598125 -22.28875 56.19625 -22.4375 56.8125 C-22.8872439 58.56150404 -23.42892341 60.28677023 -24 62 C-24.66 62 -25.32 62 -26 62 C-26.2475 62.680625 -26.495 63.36125 -26.75 64.0625 C-28.24197908 67.56865083 -30.06835511 70.71620368 -32 74 C-32.66 74 -33.32 74 -34 74 C-34.268125 74.721875 -34.53625 75.44375 -34.8125 76.1875 C-36.00400191 79.00947821 -37.25236406 81.48340424 -39 84 C-40.485 84.495 -40.485 84.495 -42 85 C-41.62111542 68.08280358 -39.64190577 51.71644369 -33 36 C-32.69707031 35.26910156 -32.39414063 34.53820312 -32.08203125 33.78515625 C-31.4060151 32.18239495 -30.70647569 30.58957029 -30 29 C-29.34 29 -28.68 29 -28 29 C-27.90847656 28.27554687 -27.81695312 27.55109375 -27.72265625 26.8046875 C-25.61052358 18.60732935 -17.36646048 12.14267002 -11 7 C-10.13375 6.2575 -9.2675 5.515 -8.375 4.75 C-5.71893315 2.79289811 -2.98691384 1.38926225 0 0 Z " fill="#C1764D" transform="translate(167,238)"/>
<path d="M0 0 C0.66 0 1.32 0 2 0 C1.07518528 5.2966661 -0.07655162 10.37777049 -1.67553711 15.51464844 C-4.15673294 23.49175483 -6.01914898 31.48869435 -7.625 39.6875 C-7.94609741 41.31498169 -7.94609741 41.31498169 -8.27368164 42.9753418 C-9.12251719 47.32367524 -9.96112069 51.66847256 -10.6640625 56.04296875 C-12.50778117 66.52758228 -17.18946989 75.59616034 -22 85 C-22.66 85 -23.32 85 -24 85 C-24.144375 85.61875 -24.28875 86.2375 -24.4375 86.875 C-25 89 -25 89 -26 91 C-26.66 91 -27.32 91 -28 91 C-28.33 92.32 -28.66 93.64 -29 95 C-29.66 95 -30.32 95 -31 95 C-31.66 96.65 -32.32 98.3 -33 100 C-33.66 100 -34.32 100 -35 100 C-35.66 101.65 -36.32 103.3 -37 105 C-37.66 104.67 -38.32 104.34 -39 104 C-36.50632721 92.45035759 -33.14072012 80.67758114 -26.6875 70.6875 C-23.02382261 64.36623279 -23.36463057 57.97289117 -23.19140625 50.8671875 C-22.88100535 39.90547728 -20.79057116 29.43648633 -15 20 C-14.62359375 19.360625 -14.2471875 18.72125 -13.859375 18.0625 C-12.8125 16.375 -12.8125 16.375 -11 14 C-10.34 14 -9.68 14 -9 14 C-8.7525 13.278125 -8.505 12.55625 -8.25 11.8125 C-6.87730408 8.72393418 -5.27646704 6.48988582 -3 4 C-2.34 4 -1.68 4 -1 4 C-0.67 2.68 -0.34 1.36 0 0 Z " fill="#C1764C" transform="translate(281,191)"/>
<path d="M0 0 C0.66 0.33 1.32 0.66 2 1 C1.21654285 2.17219543 0.42297164 3.33763668 -0.375 4.5 C-0.81585938 5.1496875 -1.25671875 5.799375 -1.7109375 6.46875 C-2.13632813 6.9740625 -2.56171875 7.479375 -3 8 C-3.66 8 -4.32 8 -5 8 C-5.33 9.32 -5.66 10.64 -6 12 C-6.66 12 -7.32 12 -8 12 C-9.20628008 14.33214148 -10.1654738 16.49642139 -11 19 C-11.66 19 -12.32 19 -13 19 C-13.20625 19.78375 -13.4125 20.5675 -13.625 21.375 C-14.78413115 24.43089121 -15.97301099 26.69888955 -17.6875 29.4375 C-25.038373 41.38490429 -30.20665824 54.7199028 -35.05078125 67.84765625 C-37.25101152 73.70588254 -39.93009244 79.18588078 -44 84 C-44.66 84 -45.32 84 -46 84 C-46.33 84.99 -46.66 85.98 -47 87 C-47.99 87 -48.98 87 -50 87 C-50 87.66 -50 88.32 -50 89 C-51.32 89 -52.64 89 -54 89 C-51.39520416 73.70925189 -48.63953621 58.70222864 -41 45 C-40.52433594 44.0821875 -40.04867187 43.164375 -39.55859375 42.21875 C-37.06615017 37.47123843 -34.84844672 33.756084 -31 30 C-29.72588164 28.12680014 -29.72588164 28.12680014 -28.75 26.25 C-28.1725 25.1775 -27.595 24.105 -27 23 C-26.34 23 -25.68 23 -25 23 C-24.731875 22.41863281 -24.46375 21.83726563 -24.1875 21.23828125 C-20.17174618 13.6691137 -13.28593317 8.2623375 -6 4 C-5.34 4 -4.68 4 -4 4 C-4 3.34 -4 2.68 -4 2 C-2.125 0.9375 -2.125 0.9375 0 0 Z " fill="#C1764C" transform="translate(206,97)"/>
<path d="M0 0 C-0.66 1.32 -1.32 2.64 -2 4 C-2.66 4 -3.32 4 -4 4 C-4.17015625 4.60585938 -4.3403125 5.21171875 -4.515625 5.8359375 C-6.07056642 11.21206474 -7.90052674 16.34808696 -10.04296875 21.515625 C-10.96497722 23.90908371 -11.65284986 26.27327677 -12.3125 28.75 C-14.25374249 35.57706627 -17.71030088 41.74506524 -21 48 C-21.66 48 -22.32 48 -23 48 C-23.24234375 48.57878906 -23.4846875 49.15757812 -23.734375 49.75390625 C-26.14539928 54.03273021 -30.30711336 56.84358 -34 60 C-34.5775 60.54914063 -35.155 61.09828125 -35.75 61.6640625 C-37.25 63.0625 -37.25 63.0625 -40 65 C-42.875 64.8125 -42.875 64.8125 -45 64 C-45 63.01 -45 62.02 -45 61 C-44.34 61 -43.68 61 -43 61 C-42.91363281 60.42765625 -42.82726562 59.8553125 -42.73828125 59.265625 C-41.53834381 55.58327731 -38.76359127 53.34230397 -36.10546875 50.609375 C-30.88116475 44.13472737 -29.40334965 38.19895376 -28.9375 30 C-28.4676792 22.34366106 -27.83623344 15.48451537 -22.8125 9.3125 C-17.63003316 5.0513606 -6.95326077 -3.47663038 0 0 Z " fill="#C1764D" transform="translate(122,344)"/>
<path d="M0 0 C1.17884766 -0.01224609 2.35769531 -0.02449219 3.57226562 -0.03710938 C4.69955078 -0.03904297 5.82683594 -0.04097656 6.98828125 -0.04296875 C8.01091064 -0.04707764 9.03354004 -0.05118652 10.0871582 -0.05541992 C12.6875 0.1875 12.6875 0.1875 15.6875 2.1875 C14.44613281 2.49880859 14.44613281 2.49880859 13.1796875 2.81640625 C5.32435103 4.8438635 -2.40506108 7.13018272 -10.125 9.625 C-16.99713897 11.83419716 -23.87194445 14.01448936 -30.8125 16 C-31.79633667 16.29185181 -31.79633667 16.29185181 -32.80004883 16.58959961 C-44.70374308 19.9238075 -56.76504192 20.51040983 -69.0625 20.4375 C-70.42708698 20.44464784 -71.79167065 20.4524578 -73.15625 20.4609375 C-74.44015625 20.45835937 -75.7240625 20.45578125 -77.046875 20.453125 C-78.20413086 20.45086914 -79.36138672 20.44861328 -80.55371094 20.44628906 C-83.3125 20.1875 -83.3125 20.1875 -85.3125 18.1875 C-80.32639788 16.41860728 -75.3375988 14.65774745 -70.34570312 12.90527344 C-68.7847312 12.35420986 -67.22746191 11.79264886 -65.671875 11.2265625 C-57.11893012 8.19059352 -48.13051008 6.60572309 -39.1875 5.1875 C-34.128633 4.38482644 -29.23713928 3.21780421 -24.296875 1.87109375 C-16.22344928 0.0218143 -8.24794663 0.00458474 0 0 Z " fill="#C1764C" transform="translate(361.3125,310.8125)"/>
<path d="M0 0 C3.625 0.375 3.625 0.375 7 1 C7.27580899 6.83688801 6.68894396 10.6777355 4.3125 16.125 C3.75532672 17.43253729 3.2006951 18.74116017 2.6484375 20.05078125 C2.36967773 20.70643066 2.09091797 21.36208008 1.80371094 22.03759766 C0.55534605 25.08570123 -0.49570264 28.19704402 -1.5625 31.3125 C-3.29328735 36.25049715 -5.33001883 40.77594911 -7.76171875 45.3984375 C-9.19588685 48.41154776 -10.24556429 51.46344469 -11.3125 54.625 C-13.22101427 60.12176192 -15.43442821 65.34000788 -18 70.5625 C-18.32009033 71.22910645 -18.64018066 71.89571289 -18.9699707 72.58251953 C-21.07567881 76.76418059 -23.34961747 79.95216458 -27 83 C-27.99 83 -28.98 83 -30 83 C-28.70029603 76.59751737 -26.93300595 70.6277011 -24.6875 64.5 C-22.09255404 57.27866316 -19.72750903 50.04211046 -17.6862793 42.64453125 C-16.4535901 38.24987015 -14.82662474 34.17791829 -13 30 C-12.39403412 28.19494062 -11.80995629 26.38235796 -11.25 24.5625 C-9.55301314 19.3728774 -7.5503961 14.37762365 -5.375 9.375 C-5.07368164 8.67576416 -4.77236328 7.97652832 -4.46191406 7.25610352 C-3.21132824 4.42555517 -2.2074166 2.2074166 0 0 Z " fill="#C1764C" transform="translate(83,274)"/>
<path d="M0 0 C1.03920917 4.2474344 1.4042964 6.25985467 -0.73046875 10.16796875 C-1.54128906 11.16441406 -2.35210937 12.16085937 -3.1875 13.1875 C-4.38439453 14.69376953 -4.38439453 14.69376953 -5.60546875 16.23046875 C-7.65338574 18.59910358 -9.78840077 20.78840077 -12 23 C-12.33 23.66 -12.66 24.32 -13 25 C-13.66 25 -14.32 25 -15 25 C-15.2475 25.7425 -15.495 26.485 -15.75 27.25 C-17.0983193 30.21630245 -18.64183849 31.79397794 -21 34 C-21.33 34.66 -21.66 35.32 -22 36 C-22.66 36 -23.32 36 -24 36 C-24.2371875 36.54140625 -24.474375 37.0828125 -24.71875 37.640625 C-26.34347757 40.63250137 -28.3501877 43.11159399 -30.5 45.75 C-31.2940625 46.73484375 -32.088125 47.7196875 -32.90625 48.734375 C-33.94265625 49.85585938 -33.94265625 49.85585938 -35 51 C-35.66 51 -36.32 51 -37 51 C-37.23460937 51.53109375 -37.46921875 52.0621875 -37.7109375 52.609375 C-39.38702912 55.7177631 -41.48451926 58.45399703 -43.625 61.25 C-44.25535156 62.08144531 -44.25535156 62.08144531 -44.8984375 62.9296875 C-45.92938719 64.28866663 -46.96429911 65.64463835 -48 67 C-49.31486369 64.01510829 -48.93250774 62.79681525 -47.8828125 59.63671875 C-47.31247892 58.31347736 -46.72539825 56.99737408 -46.125 55.6875 C-45.80692383 54.98254395 -45.48884766 54.27758789 -45.16113281 53.55126953 C-37.77427556 37.59152635 -27.79576714 22.95930589 -14.875 10.96484375 C-12.86337234 9.00481706 -12.86337234 9.00481706 -11.375 6.25390625 C-10.92125 5.51011719 -10.4675 4.76632812 -10 4 C-9.34 4 -8.68 4 -8 4 C-8 3.34 -8 2.68 -8 2 C-4.77208445 -0.1519437 -3.71599191 -0.20086443 0 0 Z " fill="#C1764C" transform="translate(200,290)"/>
<path d="M0 0 C3.87307003 2.15358479 6.83485616 4.09235062 9.55859375 7.6171875 C11.12357471 13.42997394 11.28061625 18.64879523 9.12109375 24.3046875 C6.77348191 27.86957955 5.51854236 29.50553796 1.43359375 30.8671875 C-2.00390625 31.2421875 -2.00390625 31.2421875 -5.56640625 30.8671875 C-8.07147429 28.75765652 -9.37488287 27.19210952 -9.8515625 23.89453125 C-9.90183594 23.20488281 -9.95210938 22.51523437 -10.00390625 21.8046875 C-10.16468129 17.7690855 -10.16468129 17.7690855 -13.00390625 15.5546875 C-13.84953125 14.9978125 -14.69515625 14.4409375 -15.56640625 13.8671875 C-18.02964694 10.17232647 -17.95632313 8.23425658 -17.56640625 3.8671875 C-13.81385788 -1.86038633 -5.84687066 -2.58081049 0 0 Z " fill="#F7D688" transform="translate(432.56640625,365.1328125)"/>
<path d="M0 0 C0 0.66 0 1.32 0 2 C-0.66 2 -1.32 2 -2 2 C-2.33 2.99 -2.66 3.98 -3 5 C-3.66 5 -4.32 5 -5 5 C-5 5.66 -5 6.32 -5 7 C-21.65662091 16.00184519 -36.7040415 19.22670057 -55.625 19.0625 C-56.62917969 19.05798828 -57.63335937 19.05347656 -58.66796875 19.04882812 C-61.11204471 19.03718967 -63.5559882 19.0208424 -66 19 C-59.67702291 10.04244912 -51.27645483 7.45582713 -40.7578125 5.48828125 C-38.21592038 5.08121202 -35.671536 4.68942878 -33.125 4.3125 C-31.86558594 4.11333984 -30.60617187 3.91417969 -29.30859375 3.70898438 C-25.54186102 3.11861773 -21.77206731 2.55517696 -18 2 C-16.05818848 1.70875244 -16.05818848 1.70875244 -14.07714844 1.41162109 C-12.83223633 1.22809082 -11.58732422 1.04456055 -10.3046875 0.85546875 C-9.18819824 0.69071045 -8.07170898 0.52595215 -6.92138672 0.35620117 C-4 0 -4 0 0 0 Z " fill="#C1764C" transform="translate(338,379)"/>
<path d="M0 0 C3.27498564 0.38987924 5.64207404 0.78129878 8.48046875 2.515625 C14.35404346 4.99282632 20.49399579 4.43549277 26.79492188 4.43945312 C34.22874715 4.57563817 40.17984072 6.04428827 47 9 C46.34 6.69 45.68 4.38 45 2 C47.27074173 4.08590923 48.66245009 5.98070559 49.97265625 8.765625 C50.48602539 9.85423828 50.48602539 9.85423828 51.00976562 10.96484375 C51.35716797 11.71894531 51.70457031 12.47304688 52.0625 13.25 C52.41376953 13.98863281 52.76503906 14.72726562 53.12695312 15.48828125 C55.19931065 19.93072629 56.78733295 24.2498638 58 29 C54.38616329 27.35089111 51.86722726 25.2134736 48.9765625 22.53515625 C42.84873458 17.77579583 36.74019094 17.24533841 29.25 16.5 C21.50841594 15.71811932 14.37552544 14.53367133 7 12 C7 11.34 7 10.68 7 10 C6.401875 9.7525 5.80375 9.505 5.1875 9.25 C2.64141207 7.79509261 1.48265135 6.52050729 0 4 C0 2.68 0 1.36 0 0 Z " fill="#C1764D" transform="translate(407,310)"/>
<path d="M0 0 C4.35482945 1.32859204 5.59418132 2.86236503 8.29296875 6.3515625 C11.04293481 9.84871821 14.47899581 12.04973875 18.3125 14.1875 C22.31389067 16.48459464 24.02312409 17.62141241 25.875 21.8125 C26.84369765 25.76180578 26.82737828 29.06852987 26.6875 33.125 C22.36394369 33.4231763 19.64850834 33.56546215 15.6875 31.75 C12.20979106 28.70700468 9.64876268 25.32331136 6.84765625 21.6640625 C4.09448702 18.42796847 1.02333416 16.04605314 -2.4296875 13.59765625 C-4.3125 12.125 -4.3125 12.125 -6.3125 9.125 C-6.63693143 6.01045823 -6.77179053 3.96252979 -5.25 1.1875 C-3.3125 0.125 -3.3125 0.125 0 0 Z " fill="#F7D689" transform="translate(289.3125,62.875)"/>
<path d="M0 0 C-6.01352404 9.43844502 -22.58651329 10.72949193 -32.68017578 13.03271484 C-33.73962402 13.2745752 -34.79907227 13.51643555 -35.890625 13.765625 C-36.85000977 13.97993164 -37.80939453 14.19423828 -38.79785156 14.41503906 C-40.9592766 14.79198584 -40.9592766 14.79198584 -42 16 C-43.68608966 16.07205511 -45.37500659 16.08386068 -47.0625 16.0625 C-47.98160156 16.05347656 -48.90070313 16.04445313 -49.84765625 16.03515625 C-50.55792969 16.02355469 -51.26820313 16.01195312 -52 16 C-52.93423645 12.98968256 -53.04449911 12.13349732 -52 9 C-46.7173927 4.37707017 -40.64067156 2.81003899 -33.875 1.6875 C-32.93446777 1.52217773 -31.99393555 1.35685547 -31.02490234 1.18652344 C-20.70561407 -0.46524665 -10.41725327 -0.39586171 0 0 Z " fill="#C1754C" transform="translate(276,348)"/>
<path d="M0 0 C2.05109902 0.02371071 4.10089661 0.02051309 6.15209961 0.01391602 C27.568575 0.05784231 27.568575 0.05784231 33.98608398 4.33618164 C33.98608398 5.32618164 33.98608398 6.31618164 33.98608398 7.33618164 C26.9609695 7.38732399 19.93590388 7.42209898 12.91064453 7.44604492 C10.52586066 7.45603861 8.14108883 7.46963808 5.75634766 7.48706055 C2.3081564 7.51160283 -1.13987142 7.5227314 -4.58813477 7.53149414 C-5.6366008 7.54181671 -6.68506683 7.55213928 -7.76530457 7.56277466 C-15.33764925 7.56389604 -22.56403925 6.66908233 -30.01391602 5.33618164 C-23.43324977 -1.24448461 -8.70735987 -0.1071643 0 0 Z " fill="#C2754C" transform="translate(334.013916015625,433.663818359375)"/>
<path d="M0 0 C1.37394884 -0.08243693 2.74940598 -0.1398309 4.125 -0.1875 C4.89070313 -0.22230469 5.65640625 -0.25710938 6.4453125 -0.29296875 C9 0 9 0 11.59765625 1.41796875 C16.38435289 3.64370025 21.09876035 3.95892004 26.3125 4.5 C36.95947555 5.61782893 45.53537731 8.00956258 55 13 C55 13.66 55 14.32 55 15 C56.03640625 14.97679687 57.0728125 14.95359375 58.140625 14.9296875 C59.51040944 14.91092333 60.8802017 14.89272382 62.25 14.875 C62.93191406 14.85824219 63.61382812 14.84148437 64.31640625 14.82421875 C68.16245258 14.78687849 70.66397731 15.13878271 74 17 C67.06379747 17.18394965 60.47554617 16.69000621 53.625 15.625 C52.71105469 15.48779541 51.79710937 15.35059082 50.85546875 15.20922852 C48.23582986 14.81326359 45.61793297 14.40705984 43 14 C41.72898437 13.81050781 40.45796875 13.62101562 39.1484375 13.42578125 C34.42817397 12.69373045 30.43141763 11.78275422 26 10 C22.43327169 8.91143525 18.83494246 7.92793762 15.23828125 6.94335938 C11.06174413 5.75692715 7.65693156 4.41434742 4 2 C2.67391178 1.31903578 1.34313399 0.64669414 0 0 Z " fill="#BE7952" transform="translate(257,442)"/>
<path d="M0 0 C0 0.66 0 1.32 0 2 C-1.18851562 2.04898437 -2.37703125 2.09796875 -3.6015625 2.1484375 C-11.88353257 2.51543515 -20.11802617 2.97276827 -28.36474609 3.83740234 C-36.29527365 4.66370355 -44.02827509 5.18524261 -52 4.75 C-52.7233252 4.71148926 -53.44665039 4.67297852 -54.19189453 4.63330078 C-58.39997108 4.32880177 -62.06162575 3.50150518 -66 2 C-66 1.67 -66 1.34 -66 1 C-64.07305298 1.00785522 -64.07305298 1.00785522 -62.10717773 1.01586914 C-57.27075924 1.03418014 -52.43434371 1.04552588 -47.59790039 1.05493164 C-45.517817 1.05991291 -43.43773702 1.06670035 -41.35766602 1.07543945 C-30.54991106 1.11965891 -19.82072754 1.11135763 -9.04321289 0.21655273 C-6.01752844 0.00124731 -3.03218706 -0.03616866 0 0 Z " fill="#FBEBE0" transform="translate(381,457)"/>
<path d="M0 0 C-2.7796469 1.85309794 -5.58202315 3.50128708 -8.5 5.125 C-9.4590625 5.66382813 -10.418125 6.20265625 -11.40625 6.7578125 C-14 8 -14 8 -17 8 C-17 7.01 -17 6.02 -17 5 C-17.99 4.67 -18.98 4.34 -20 4 C-20.33 4.66 -20.66 5.32 -21 6 C-24.74198039 6.70603404 -28.18792739 7 -32 7 C-32 6.34 -32 5.68 -32 5 C-28.35769094 4.15074525 -24.71069486 3.32357053 -21.0625 2.5 C-20.04091797 2.26152344 -19.01933594 2.02304687 -17.96679688 1.77734375 C-11.82202239 0.40311303 -6.29531899 -0.26257848 0 0 Z " fill="#993A13" transform="translate(321,288)"/>
<path d="M0 0 C2.31216043 3.46824064 3.11117593 6.82272641 4.0625 10.8125 C4.23587891 11.51181641 4.40925781 12.21113281 4.58789062 12.93164062 C6.70634915 21.60839223 7.18280054 29.76322194 7.1875 38.6875 C7.19974609 39.92306641 7.21199219 41.15863281 7.22460938 42.43164062 C7.22750977 44.2037793 7.22750977 44.2037793 7.23046875 46.01171875 C7.23457764 47.08897217 7.23868652 48.16622559 7.24291992 49.27612305 C7 52 7 52 5 55 C5.01047363 54.29617188 5.02094727 53.59234375 5.03173828 52.8671875 C5.20513512 39.41686075 5.24871772 26.29152793 3 13 C0.525 12.01 0.525 12.01 -2 11 C-1.67 10.484375 -1.34 9.96875 -1 9.4375 C0.32010877 6.21973488 0.13242105 3.4429472 0 0 Z " fill="#AB6949" transform="translate(467,346)"/>
<path d="M0 0 C0 0.99 0 1.98 0 3 C-0.99 3.33 -1.98 3.66 -3 4 C-3.33 4.99 -3.66 5.98 -4 7 C-6.66137199 9.38122757 -8.5967577 10.8655859 -12 12 C-12.33 13.65 -12.66 15.3 -13 17 C-13.99 17.33 -14.98 17.66 -16 18 C-16 17.34 -16 16.68 -16 16 C-19.08089673 18.77280706 -20.68775452 21.06326356 -22 25 C-22.66 24.67 -23.32 24.34 -24 24 C-24 23.34 -24 22.68 -24 22 C-24.66 21.67 -25.32 21.34 -26 21 C-25.2575 20.4225 -24.515 19.845 -23.75 19.25 C-21.08437565 17.15758514 -21.08437565 17.15758514 -19.234375 15.17578125 C-16.50289471 12.51593069 -13.53532267 10.23291975 -10.5 7.9375 C-9.93152344 7.50373047 -9.36304688 7.06996094 -8.77734375 6.62304688 C-5.8622071 4.40118518 -2.93571211 2.19458871 0 0 Z " fill="#AC623C" transform="translate(194,77)"/>
<path d="M0 0 C1.85625 0.2475 1.85625 0.2475 3.75 0.5 C9.21067709 1.04763237 14.64230364 1.11291914 20.125 1.125 C20.9715918 1.12951172 21.81818359 1.13402344 22.69042969 1.13867188 C27.88175576 1.12652842 32.86216983 0.74753649 38 0 C37 2 37 2 35.22265625 2.59765625 C34.50980469 2.75105469 33.79695313 2.90445312 33.0625 3.0625 C30.82845863 3.55309711 29.05204395 3.97397802 27 5 C26.01 4.67 25.02 4.34 24 4 C21.15893423 3.95454295 18.33939827 3.95259769 15.5 4 C7.40540541 4.13513514 7.40540541 4.13513514 4 3 C3.67 3.66 3.34 4.32 3 5 C3 4.01 3 3.02 3 2 C2.01 1.67 1.02 1.34 0 1 C0 0.67 0 0.34 0 0 Z " fill="#FDF2EC" transform="translate(80,409)"/>
<path d="M0 0 C0.33 0 0.66 0 1 0 C1.02686553 1.97909398 1.04633375 3.95828971 1.0625 5.9375 C1.07410156 7.03964844 1.08570313 8.14179688 1.09765625 9.27734375 C1 12 1 12 0 13 C-1.03003686 23.67828557 -0.75381658 34.32315578 3.02734375 44.40625 C3.97528465 46.93409239 4.54293054 49.34418586 5 52 C4.34 52 3.68 52 3 52 C-3.7332944 35.64771359 -4.21671831 17.1680674 0 0 Z " fill="#A7603F" transform="translate(40,324)"/>
<path d="M0 0 C1 2 1 2 0.4765625 3.8125 C0.05503906 4.8953125 0.05503906 4.8953125 -0.375 6 C-2.14352929 10.96641787 -2.6827983 15.76070288 -3 21 C-3.33 21 -3.66 21 -4 21 C-4.33 16.38 -4.66 11.76 -5 7 C-7.64 8.98 -10.28 10.96 -13 13 C-13.66 12.67 -14.32 12.34 -15 12 C-10.05 8.04 -5.1 4.08 0 0 Z " fill="#F5DFD2" transform="translate(203,358)"/>
<path d="M0 0 C0.66 0.33 1.32 0.66 2 1 C2.05827558 4.5624308 2.09368885 8.12473819 2.125 11.6875 C2.14175781 12.69490234 2.15851563 13.70230469 2.17578125 14.74023438 C2.18222656 15.71669922 2.18867188 16.69316406 2.1953125 17.69921875 C2.20578613 18.59471436 2.21625977 19.49020996 2.22705078 20.4128418 C1.97489805 23.28602729 1.15614534 25.36999611 0 28 C-0.68679942 30.32748694 -1.35761043 32.65986656 -2 35 C-3.33861036 32.32277928 -2.73556953 31.11070617 -2.125 28.1875 C-0.43935216 18.88226835 -0.32609128 9.43278686 0 0 Z " fill="#F5E1D4" transform="translate(329,143)"/>
<path d="M0 0 C3.40104484 1.4073289 5.05908911 2.8750794 7 6 C9.09370519 15.80096778 5.09514733 23.91923467 0 32 C-0.99 32.495 -0.99 32.495 -2 33 C-1.27640681 29.53826441 0.02646608 26.52086309 1.5 23.3125 C2.16515625 21.85263672 2.16515625 21.85263672 2.84375 20.36328125 C4 18 4 18 5 17 C5.43289744 12.127387 5.55912909 7.31011215 3 3 C2.01 2.67 1.02 2.34 0 2 C0 1.34 0 0.68 0 0 Z " fill="#E4B295" transform="translate(137,206)"/>
<path d="M0 0 C0.33 0.66 0.66 1.32 1 2 C0.34 1.67 -0.32 1.34 -1 1 C-0.67 0.67 -0.34 0.34 0 0 Z M-1 2 C-1 3.32 -1 4.64 -1 6 C-2.0725 6.4125 -3.145 6.825 -4.25 7.25 C-6.84733454 8.3387031 -7.99295512 8.99227336 -9.9375 11.125 C-13.0498737 13.95443064 -15.86046781 13.72403119 -20 14 C-16.39438634 11.04086421 -12.68580902 8.34824456 -8.8125 5.75 C-7.76707031 5.04359375 -6.72164062 4.3371875 -5.64453125 3.609375 C-3 2 -3 2 -1 2 Z " fill="#F6E5DC" transform="translate(180,376)"/>
<path d="M0 0 C2.7302389 -0.1083667 5.45614543 -0.18746694 8.1875 -0.25 C9.34088867 -0.30027344 9.34088867 -0.30027344 10.51757812 -0.3515625 C14.64610431 -0.42243849 16.50155164 -0.32932056 20.05078125 2.015625 C20.69402344 2.67046875 21.33726562 3.3253125 22 4 C21.67 5.32 21.34 6.64 21 8 C20.38125 7.195625 19.7625 6.39125 19.125 5.5625 C16.98758614 2.98503035 16.24071373 2.16996079 13.00390625 1.7265625 C5.65738426 1.42094719 0.42760574 3.57846082 -6 7 C-6 6.01 -6 5.02 -6 4 C-4.35 3.67 -2.7 3.34 -1 3 C-0.67 2.01 -0.34 1.02 0 0 Z " fill="#AD633F" transform="translate(122,204)"/>
<path d="M0 0 C-1.40205505 2.80411009 -3.26727293 3.53830878 -6 5 C-8.3125 5.6875 -8.3125 5.6875 -10 6 C-10 6.99 -10 7.98 -10 9 C-11.32 9 -12.64 9 -14 9 C-14.309375 9.78375 -14.61875 10.5675 -14.9375 11.375 C-16 14 -16 14 -17 16 C-17.66 16 -18.32 16 -19 16 C-19 16.66 -19 17.32 -19 18 C-19.66 18 -20.32 18 -21 18 C-20.67 16.68 -20.34 15.36 -20 14 C-19.34 14 -18.68 14 -18 14 C-17.67 12.68 -17.34 11.36 -17 10 C-16.34 10 -15.68 10 -15 10 C-14.67 9.01 -14.34 8.02 -14 7 C-12.00390625 5.4296875 -12.00390625 5.4296875 -9.5625 3.875 C-8.35787109 3.09769531 -8.35787109 3.09769531 -7.12890625 2.3046875 C-4.34925486 0.60119472 -3.33541969 0 0 0 Z " fill="#E5B498" transform="translate(127,206)"/>
<path d="M0 0 C4.75 0.875 4.75 0.875 7 2 C7 2.66 7 3.32 7 4 C8.03640625 3.97679687 9.0728125 3.95359375 10.140625 3.9296875 C11.51040944 3.91092333 12.8802017 3.89272382 14.25 3.875 C14.93191406 3.85824219 15.61382812 3.84148437 16.31640625 3.82421875 C20.16245258 3.78687849 22.66397731 4.13878271 26 6 C18.80540143 6.21120322 11.97912425 5.60752499 4.875 4.5 C3.44027344 4.28537109 3.44027344 4.28537109 1.9765625 4.06640625 C-0.35002216 3.71741855 -2.67539156 3.36187667 -5 3 C-5 2.67 -5 2.34 -5 2 C-3.35 1.67 -1.7 1.34 0 1 C0 0.67 0 0.34 0 0 Z " fill="#B97F5F" transform="translate(305,453)"/>
<path d="M0 0 C0.66 0 1.32 0 2 0 C2.33 2.31 2.66 4.62 3 7 C1.68 7.99 0.36 8.98 -1 10 C-1.33 9.67 -1.66 9.34 -2 9 C-3.65 10.65 -5.3 12.3 -7 14 C-6.33298297 10.47551493 -4.89642169 7.81699862 -3.0625 4.75 C-2.53785156 3.85796875 -2.01320313 2.9659375 -1.47265625 2.046875 C-0.98667969 1.37140625 -0.50070312 0.6959375 0 0 Z " fill="#F6EAE4" transform="translate(291,251)"/>
<path d="M0 0 C3.56429886 0.24981936 7.12577096 0.52854546 10.6875 0.8125 C12.19860352 0.91788086 12.19860352 0.91788086 13.74023438 1.02539062 C23.31836368 1.81566532 23.31836368 1.81566532 27 5 C27 5.66 27 6.32 27 7 C26.07380859 6.69255859 26.07380859 6.69255859 25.12890625 6.37890625 C19.38465746 4.55158814 13.99272518 3.49847067 8 3 C5.62130558 2.76346941 3.35517767 2.44159581 1 2 C0.67 1.34 0.34 0.68 0 0 Z " fill="#FAE8CD" transform="translate(250,53)"/>
<path d="M0 0 C0.75 1.6875 0.75 1.6875 1 4 C-0.9375 6.75 -0.9375 6.75 -3 9 C-3.5775 8.79375 -4.155 8.5875 -4.75 8.375 C-7.51967567 7.91338739 -8.64561267 8.57055055 -11 10 C-11.99 9.34 -12.98 8.68 -14 8 C-12.98679687 7.51080078 -12.98679687 7.51080078 -11.953125 7.01171875 C-11.06109375 6.57472656 -10.1690625 6.13773437 -9.25 5.6875 C-8.36828125 5.25824219 -7.4865625 4.82898438 -6.578125 4.38671875 C-4.18399785 3.09896854 -2.12223042 1.69084246 0 0 Z " fill="#F7EFEA" transform="translate(452,437)"/>
<path d="M0 0 C0.33 0 0.66 0 1 0 C1.02922646 3.37498158 1.04687468 6.74993021 1.0625 10.125 C1.07087891 11.07632813 1.07925781 12.02765625 1.08789062 13.0078125 C1.10449608 17.79018487 1.00537055 22.29771569 0 27 C-0.33 27 -0.66 27 -1 27 C-1 19.74 -1 12.48 -1 5 C-1.66 4.67 -2.32 4.34 -3 4 C-2.34 3.67 -1.68 3.34 -1 3 C-0.67 2.01 -0.34 1.02 0 0 Z " fill="#A25B3B" transform="translate(328,143)"/>
<path d="M0 0 C0 0.66 0 1.32 0 2 C-1.39025391 2.18175781 -1.39025391 2.18175781 -2.80859375 2.3671875 C-4.00613281 2.53476562 -5.20367187 2.70234375 -6.4375 2.875 C-7.63246094 3.03742188 -8.82742188 3.19984375 -10.05859375 3.3671875 C-11.51458984 3.68042969 -11.51458984 3.68042969 -13 4 C-13.33 4.66 -13.66 5.32 -14 6 C-17.74198039 6.70603404 -21.18792739 7 -25 7 C-25 6.34 -25 5.68 -25 5 C-21.20906666 4.16330657 -17.41713799 3.33121508 -13.625 2.5 C-12.54476563 2.26152344 -11.46453125 2.02304687 -10.3515625 1.77734375 C-9.3203125 1.55175781 -8.2890625 1.32617188 -7.2265625 1.09375 C-6.27346191 0.88427734 -5.32036133 0.67480469 -4.33837891 0.45898438 C-2 0 -2 0 0 0 Z " fill="#964A2E" transform="translate(314,288)"/>
<path d="M0 0 C0.66 0.66 1.32 1.32 2 2 C1.33613281 2.02578125 0.67226563 2.0515625 -0.01171875 2.078125 C-4.27042372 2.35167685 -7.31157049 2.60661171 -11.0625 4.75 C-13.2012532 7.2337134 -13.73052832 8.76633979 -14 12 C-14.33 12 -14.66 12 -15 12 C-15.36471664 5.55667276 -15.36471664 5.55667276 -13.8125 3.1875 C-9.25356922 0.20061431 -5.44531955 -0.41096751 0 0 Z " fill="#FDD077" transform="translate(430,364)"/>
<path d="M0 0 C0.33 0 0.66 0 1 0 C1.60158689 6.73777314 0.32751919 10.7414085 -4 16 C-4.66 16.33 -5.32 16.66 -6 17 C-4.33846988 11.14340094 -2.52958084 5.5409866 0 0 Z " fill="#AB5E3C" transform="translate(68,240)"/>
<path d="M0 0 C3.91586149 2.61057433 4.00639127 4.49054499 5 9 C5.125 11.9375 5.125 11.9375 5 14 C2.9375 11.6875 2.9375 11.6875 1 9 C1.33 8.01 1.66 7.02 2 6 C0.68 6.33 -0.64 6.66 -2 7 C-1.125 1.125 -1.125 1.125 0 0 Z " fill="#973C14" transform="translate(323,128)"/>
<path d="M0 0 C0.33 0 0.66 0 1 0 C0.74298316 7.59484777 0.1315921 14.43622538 -4 21 C-4.66 21.33 -5.32 21.66 -6 22 C-5.71382813 21.00871094 -5.42765625 20.01742188 -5.1328125 18.99609375 C-3.99977701 15.03046953 -2.93132131 11.04913486 -1.875 7.0625 C-1.69324219 6.37865234 -1.51148438 5.69480469 -1.32421875 4.99023438 C-0.88223414 3.3269765 -0.44103362 1.6635103 0 0 Z " fill="#F5E2D8" transform="translate(473,398)"/>
<path d="M0 0 C0.67578125 1.75 0.67578125 1.75 1 4 C-0.14453125 6 -0.14453125 6 -1.8125 8 C-3.9314444 10.57695851 -5.60887641 12.959886 -7 16 C-7.66 16 -8.32 16 -9 16 C-9 16.66 -9 17.32 -9 18 C-9.66 17.67 -10.32 17.34 -11 17 C-9.68 14.69 -8.36 12.38 -7 10 C-6.34 10 -5.68 10 -5 10 C-4.731875 9.278125 -4.46375 8.55625 -4.1875 7.8125 C-3.01017502 5.02409874 -1.60854116 2.55904276 0 0 Z " fill="#F7E8DB" transform="translate(281,267)"/>
<path d="M0 0 C1 3 1 3 -0.25 6 C-2.5178285 9.88770601 -3.71819987 11.57273329 -8 13 C-10.33299825 13.03954234 -12.66708189 13.04401732 -15 13 C-15.33 12.34 -15.66 11.68 -16 11 C-12.7 11 -9.4 11 -6 11 C-5.67 10.01 -5.34 9.02 -5 8 C-4.34 8 -3.68 8 -3 8 C-2.87625 7.05125 -2.7525 6.1025 -2.625 5.125 C-2 2 -2 2 0 0 Z " fill="#FDD078" transform="translate(442,383)"/>
<path d="M0 0 C2 1 2 1 3.125 3.625 C4.05654649 7.21810788 4.14783375 10.30415624 4 14 C2.02 14 0.04 14 -2 14 C-1.67 12.68 -1.34 11.36 -1 10 C-0.01 10 0.98 10 2 10 C2 8.35 2 6.7 2 5 C1.34 5 0.68 5 0 5 C0 3.35 0 1.7 0 0 Z " fill="#F5DB9F" transform="translate(312,81)"/>
<path d="M0 0 C0.33 0 0.66 0 1 0 C1 4.95 1 9.9 1 15 C1.99 15.33 2.98 15.66 4 16 C3.979375 17.093125 3.95875 18.18625 3.9375 19.3125 C3.81455548 22.94384191 3.81455548 22.94384191 5 26 C4.34 26 3.68 26 3 26 C-0.49409003 17.34796755 -0.30659554 9.15244471 0 0 Z " fill="#A86244" transform="translate(200,369)"/>
<path d="M0 0 C2.57821139 2.57821139 3.02434808 4.82699374 4.0625 8.3125 C4.40410156 9.44300781 4.74570312 10.57351563 5.09765625 11.73828125 C5.8578782 14.48626968 6.48984281 17.19676514 7 20 C6.34 20 5.68 20 5 20 C4.15960114 17.41877492 3.32749444 14.83536099 2.5 12.25 C2.26152344 11.52039063 2.02304687 10.79078125 1.77734375 10.0390625 C1.55175781 9.33007812 1.32617188 8.62109375 1.09375 7.890625 C0.88427734 7.24125977 0.67480469 6.59189453 0.45898438 5.92285156 C0 4 0 4 0 0 Z " fill="#AE6B4C" transform="translate(38,356)"/>
<path d="M0 0 C0.66 0 1.32 0 2 0 C4.26023623 5.98297825 4.54629985 11.74215565 3 18 C2.01 18.66 1.02 19.32 0 20 C0.165 19.38125 0.33 18.7625 0.5 18.125 C1.4545776 12.15889001 1.56552033 5.87070123 0 0 Z " fill="#F1B453" transform="translate(441,371)"/>
<path d="M0 0 C0.66 0 1.32 0 2 0 C1.21085905 6.78661213 -0.41274811 13.36149367 -2 20 C-4 17 -4 17 -4 15 C-3.34 15 -2.68 15 -2 15 C-2.02320313 14.33613281 -2.04640625 13.67226563 -2.0703125 12.98828125 C-2.24956063 4.21792619 -2.24956063 4.21792619 0 0 Z " fill="#F3DDD1" transform="translate(43,304)"/>
<path d="M0 0 C0.66 0 1.32 0 2 0 C1.67 0.66 1.34 1.32 1 2 C0.67 1.34 0.34 0.68 0 0 Z M-2 0 C-1.67 0.66 -1.34 1.32 -1 2 C-0.34 2 0.32 2 1 2 C1 3.32 1 4.64 1 6 C-0.60597325 5.54803755 -2.20972508 5.08817673 -3.8125 4.625 C-4.70582031 4.36976563 -5.59914063 4.11453125 -6.51953125 3.8515625 C-9 3 -9 3 -12 1 C-8.4780279 0.91995518 -5.38018531 0.95994298 -2 2 C-2 1.34 -2 0.68 -2 0 Z " fill="#F5E8E1" transform="translate(437,289)"/>
<path d="M0 0 C-0.93972656 0.30744141 -0.93972656 0.30744141 -1.8984375 0.62109375 C-2.71570313 0.89050781 -3.53296875 1.15992188 -4.375 1.4375 C-5.18710938 1.70433594 -5.99921875 1.97117187 -6.8359375 2.24609375 C-9.01031799 2.95179729 -9.01031799 2.95179729 -11 4 C-11.66 3.67 -12.32 3.34 -13 3 C-15.204364 2.77049681 -17.41392173 2.58924067 -19.625 2.4375 C-20.81351562 2.35371094 -22.00203125 2.26992188 -23.2265625 2.18359375 C-24.59941406 2.09271484 -24.59941406 2.09271484 -26 2 C-26 1.67 -26 1.34 -26 1 C-24.77023438 0.93941406 -23.54046875 0.87882812 -22.2734375 0.81640625 C-20.64061573 0.73194995 -19.00780373 0.64730453 -17.375 0.5625 C-16.56675781 0.52318359 -15.75851563 0.48386719 -14.92578125 0.44335938 C-11.39890166 0.25697956 -8.02531955 0.00437234 -4.5390625 -0.59765625 C-2 -1 -2 -1 0 0 Z " fill="#F3D2C5" transform="translate(118,410)"/>
<path d="M0 0 C0 1.66666667 0 3.33333333 0 5 C0.66 5.66 1.32 6.32 2 7 C1.67 7.66 1.34 8.32 1 9 C0.34 9 -0.32 9 -1 9 C-1 8.34 -1 7.68 -1 7 C-3.97 9.475 -3.97 9.475 -7 12 C-7.33 11.34 -7.66 10.68 -8 10 C-7.34 10 -6.68 10 -6 10 C-5.7525 9.278125 -5.505 8.55625 -5.25 7.8125 C-3.89016326 4.75286734 -2.17082246 2.5326262 0 0 Z " fill="#F3E5DC" transform="translate(269,285)"/>
<path d="M0 0 C2.56875197 4.18504534 1.75768904 6.84843072 0.71484375 11.44921875 C-0.22972205 14.81971856 -1.49070825 17.84420816 -3 21 C-3.66 20.67 -4.32 20.34 -5 20 C-3.21568627 14.39215686 -3.21568627 14.39215686 -1.96875 12.125 C-0.82277883 9.61125679 -0.59188161 7.497167 -0.375 4.75 C-0.26285156 3.41195312 -0.26285156 3.41195312 -0.1484375 2.046875 C-0.09945312 1.37140625 -0.05046875 0.6959375 0 0 Z " fill="#B26541" transform="translate(144,214)"/>
<path d="M0 0 C1.11450049 3.34350146 0.91669067 4.66657937 0 8 C-2 11 -2 11 -4.125 11.6875 C-4.74375 11.790625 -5.3625 11.89375 -6 12 C-4.68139111 7.38486888 -2.78644563 3.90102388 0 0 Z " fill="#AE6846" transform="translate(101,177)"/>
<path d="M0 0 C2.875 0.6875 2.875 0.6875 6 2 C7.4375 4.4375 7.4375 4.4375 8 7 C7.67 7.99 7.34 8.98 7 10 C4.36 7.36 1.72 4.72 -1 2 C-0.67 1.34 -0.34 0.68 0 0 Z " fill="#F4A245" transform="translate(317,119)"/>
<path d="M0 0 C0 0.66 0 1.32 0 2 C-2.97 2 -5.94 2 -9 2 C-9 2.66 -9 3.32 -9 4 C-11.64 4.66 -14.28 5.32 -17 6 C-16 3 -16 3 -14.1796875 2.05078125 C-9.24482262 0.46995165 -5.18102823 -0.33070393 0 0 Z " fill="#954A2F" transform="translate(245,53)"/>
<path d="M0 0 C1 2 1 2 0.75 4.0625 C0.5025 4.701875 0.255 5.34125 0 6 C-0.99 6.33 -1.98 6.66 -3 7 C-4.8929807 9.08744972 -4.8929807 9.08744972 -6.6875 11.5625 C-7.31011719 12.38878906 -7.93273437 13.21507812 -8.57421875 14.06640625 C-9.27998047 15.02353516 -9.27998047 15.02353516 -10 16 C-10.66 15.67 -11.32 15.34 -12 15 C-11.38511719 14.25234375 -10.77023438 13.5046875 -10.13671875 12.734375 C-8.92435547 11.25710937 -8.92435547 11.25710937 -7.6875 9.75 C-6.88699219 8.77546875 -6.08648437 7.8009375 -5.26171875 6.796875 C-3.45557742 4.5633738 -1.70180085 2.31312737 0 0 Z " fill="#B0704D" transform="translate(129,138)"/>
<path d="M0 0 C0.99 0.495 0.99 0.495 2 1 C2 1.66 2 2.32 2 3 C2.61875 3.28875 3.2375 3.5775 3.875 3.875 C6 5 6 5 8 7 C8.4140625 9.1640625 8.4140625 9.1640625 8.625 11.625 C8.69976562 12.44226563 8.77453125 13.25953125 8.8515625 14.1015625 C8.92503906 15.04128906 8.92503906 15.04128906 9 16 C8.01 16 7.02 16 6 16 C6.103125 14.741875 6.20625 13.48375 6.3125 12.1875 C6.39169572 9.99559303 6.39169572 9.99559303 6 8 C3.60775041 6.26461808 3.60775041 6.26461808 1 5 C0.1875 2.3125 0.1875 2.3125 0 0 Z " fill="#F1B551" transform="translate(415,376)"/>
<path d="M0 0 C0 0.99 0 1.98 0 3 C-0.99 3.33 -1.98 3.66 -3 4 C-3.33 4.99 -3.66 5.98 -4 7 C-6.3125 9.25 -6.3125 9.25 -9 11 C-10.32 10.67 -11.64 10.34 -13 10 C-8.71 6.7 -4.42 3.4 0 0 Z " fill="#AE6945" transform="translate(194,77)"/>
<path d="M0 0 C0.66 0.33 1.32 0.66 2 1 C1.014242 3.57039049 0.48462425 4.75768787 -2.0234375 6.01171875 C-3.18746094 6.34623047 -3.18746094 6.34623047 -4.375 6.6875 C-5.14585937 6.91824219 -5.91671875 7.14898437 -6.7109375 7.38671875 C-8.80234124 7.94704364 -10.89671524 8.48618386 -13 9 C-9.00302635 5.62755348 -4.72909821 2.28625278 0 0 Z " fill="#AC6345" transform="translate(216,63)"/>
<path d="M0 0 C1.89646998 0.11493757 3.79218332 0.24239642 5.6875 0.375 C6.74324219 0.44460938 7.79898437 0.51421875 8.88671875 0.5859375 C11.90677269 0.98760089 14.24078054 1.74069019 17 3 C17 3.33 17 3.66 17 4 C10.66606918 4.34548714 5.89738492 3.29342747 0 1 C0 0.67 0 0.34 0 0 Z " fill="#BD8669" transform="translate(283,451)"/>
<path d="M0 0 C-2.7819368 3.27286682 -6.27954067 4.96427697 -10 7 C-10.33 5.35 -10.66 3.7 -11 2 C-7.36576791 -0.32590854 -4.22911669 -0.16265833 0 0 Z " fill="#AD623D" transform="translate(165,386)"/>
<path d="M0 0 C2.10827055 3.16240582 2.33817465 4.50657469 2.625 8.1875 C2.69976562 9.08855469 2.77453125 9.98960937 2.8515625 10.91796875 C2.90054687 11.60503906 2.94953125 12.29210937 3 13 C0.525 12.01 0.525 12.01 -2 11 C-1.67 10.484375 -1.34 9.96875 -1 9.4375 C0.32010877 6.21973488 0.13242105 3.4429472 0 0 Z " fill="#AD623A" transform="translate(467,346)"/>
<path d="M0 0 C0.33 0.66 0.66 1.32 1 2 C-0.69886913 4.76929481 -2.38289614 7.04739517 -5 9 C-8.48547038 9.32157614 -11.60634446 8.79811267 -15 8 C-15 7.67 -15 7.34 -15 7 C-14.01 6.95875 -13.02 6.9175 -12 6.875 C-7.03276153 6.21473313 -3.71703495 3.15706605 0 0 Z " fill="#AC5F3A" transform="translate(128,246)"/>
<path d="M0 0 C0.66 0 1.32 0 2 0 C1.4054429 3.02563502 0.50729497 4.94512832 -1.375 7.375 C-3.65112703 10.42962844 -5.39397934 13.53437647 -7 17 C-7.66 16.34 -8.32 15.68 -9 15 C-8.68546875 14.50371094 -8.3709375 14.00742188 -8.046875 13.49609375 C-5.24970291 9.05600432 -2.5727413 4.5737623 0 0 Z " fill="#F7E7DA" transform="translate(101,173)"/>
<path d="M0 0 C0.66 0 1.32 0 2 0 C2.268125 0.78375 2.53625 1.5675 2.8125 2.375 C3.84814432 5.28114923 3.84814432 5.28114923 7 7 C8.1875 10.625 8.1875 10.625 9 14 C5.41292671 10.61220856 2.50310461 7.26454859 0 3 C0 2.01 0 1.02 0 0 Z " fill="#F8A64B" transform="translate(286,93)"/>
<path d="M0 0 C1.75390625 1.515625 1.75390625 1.515625 3 3 C2.39671875 2.98839844 1.7934375 2.97679687 1.171875 2.96484375 C0.37265625 2.95582031 -0.4265625 2.94679688 -1.25 2.9375 C-2.03890625 2.92589844 -2.8278125 2.91429687 -3.640625 2.90234375 C-5.90691002 2.99614694 -7.8288895 3.36758937 -10 4 C-10 3.01 -10 2.02 -10 1 C-6.88450128 -0.55774936 -3.3955612 -0.56480622 0 0 Z " fill="#F39F49" transform="translate(429,341)"/>
<path d="M0 0 C5.19644079 1.59890486 10.06612142 3.74138003 15 6 C11.78043217 7.07318928 11.09578311 6.870689 8 6 C7.01 6 6.02 6 5 6 C5 5.34 5 4.68 5 4 C2.525 3.01 2.525 3.01 0 2 C0 1.34 0 0.68 0 0 Z " fill="#F6E5D9" transform="translate(250,439)"/>
<path d="M0 0 C0.9384375 -0.02578125 1.876875 -0.0515625 2.84375 -0.078125 C5.90162546 0.29961256 7.23418595 1.2193176 9.5 3.25 C8.51 3.58 7.52 3.91 6.5 4.25 C5.9225 3.940625 5.345 3.63125 4.75 3.3125 C0.55971505 1.33375433 -4.156588 1.86010816 -8.5 3.25 C-8.83 2.59 -9.16 1.93 -9.5 1.25 C-6.29646507 0.31311714 -3.3337584 0.05495206 0 0 Z " fill="#F1B54D" transform="translate(427.5,362.75)"/>
<path d="M0 0 C0 0.99 0 1.98 0 3 C-1.32 3.33 -2.64 3.66 -4 4 C-4 4.66 -4 5.32 -4 6 C-6.97 6.66 -9.94 7.32 -13 8 C-10.20557081 5.20557081 -8.2983705 3.98752868 -4.8125 2.3125 C-3.91144531 1.87550781 -3.01039063 1.43851562 -2.08203125 0.98828125 C-1.39496094 0.66214844 -0.70789063 0.33601563 0 0 Z " fill="#97462B" transform="translate(265,302)"/>
<path d="M0 0 C0.66 0.33 1.32 0.66 2 1 C1.66226563 1.66386719 1.32453125 2.32773438 0.9765625 3.01171875 C0.30753906 4.33623047 0.30753906 4.33623047 -0.375 5.6875 C-0.81585938 6.55761719 -1.25671875 7.42773438 -1.7109375 8.32421875 C-2.92664268 10.84772799 -3.99260958 13.38737532 -5 16 C-5.33 16 -5.66 16 -6 16 C-6.31306967 11.40831148 -5.94307997 9.48809478 -3 6 C-1.96958573 4.01549844 -0.96314063 2.01800895 0 0 Z " fill="#F0DBCB" transform="translate(81,209)"/>
<path d="M0 0 C0.8353125 0.37125 0.8353125 0.37125 1.6875 0.75 C0.4809375 1.1521875 0.4809375 1.1521875 -0.75 1.5625 C-1.595625 1.954375 -2.44125 2.34625 -3.3125 2.75 C-3.6425 3.74 -3.9725 4.73 -4.3125 5.75 C-6.875 7.4375 -6.875 7.4375 -9.3125 8.75 C-7.925165 4.2096309 -5.3700603 -0.58054706 0 0 Z " fill="#F8E9D9" transform="translate(177.3125,89.25)"/>
<path d="M0 0 C3.96 0 7.92 0 12 0 C8 3 8 3 5.859375 3.07421875 C3.90625 2.71614583 1.953125 2.35807292 0 2 C0 1.34 0 0.68 0 0 Z " fill="#C3754B" transform="translate(277,447)"/>
<path d="M0 0 C1.32 0 2.64 0 4 0 C4 0.99 4 1.98 4 3 C4.99 3 5.98 3 7 3 C9.1875 6 9.1875 6 11 9 C8.03469503 7.64199529 5.70868729 6.07571737 3.25 3.9375 C2.63640625 3.41027344 2.0228125 2.88304687 1.390625 2.33984375 C0.93171875 1.89769531 0.4728125 1.45554687 0 1 C0 0.67 0 0.34 0 0 Z " fill="#A8603D" transform="translate(221,417)"/>
<path d="M0 0 C2.51083114 1.25541557 2.87125446 2.50063488 4 5 C3.01 5.33 2.02 5.66 1 6 C1 6.99 1 7.98 1 9 C0.34 9 -0.32 9 -1 9 C-1.125 2.25 -1.125 2.25 0 0 Z " fill="#B26540" transform="translate(43,311)"/>
<path d="M0 0 C0.66 0 1.32 0 2 0 C0.87204037 4.10899581 -0.33510818 8.07561214 -2 12 C-2.33 12 -2.66 12 -3 12 C-3 8.7 -3 5.4 -3 2 C-2.01 2 -1.02 2 0 2 C0 1.34 0 0.68 0 0 Z " fill="#F3E1D5" transform="translate(69,233)"/>
<path d="M0 0 C-1.76641683 0.6987693 -3.53832664 1.38366583 -5.3125 2.0625 C-6.79169922 2.63677734 -6.79169922 2.63677734 -8.30078125 3.22265625 C-11 4 -11 4 -14 3 C-11.87033995 0.87033995 -10.95931796 0.52375338 -8.125 -0.1875 C-7.44695312 -0.36667969 -6.76890625 -0.54585938 -6.0703125 -0.73046875 C-3.77181444 -1.02970718 -2.19449036 -0.69377386 0 0 Z " fill="#AD6748" transform="translate(134,404)"/>
<path d="M0 0 C0 3 0 3 -1 5 C-0.34 5.33 0.32 5.66 1 6 C-0.96466413 7.06775224 -2.96855359 8.06553465 -5 9 C-5.66 8.67 -6.32 8.34 -7 8 C-5.625 6 -5.625 6 -4 4 C-3.34 4 -2.68 4 -2 4 C-1.34 2.68 -0.68 1.36 0 0 Z " fill="#F5DAC7" transform="translate(258,300)"/>
<path d="M0 0 C0.33 0.99 0.66 1.98 1 3 C1.99 3.33 2.98 3.66 4 4 C0.91190305 5.76462683 -0.23312136 6 -4 6 C-2.84826645 3.53199953 -1.95216435 1.95216435 0 0 Z " fill="#F8EFE6" transform="translate(261,299)"/>
<path d="M0 0 C0 0.99 0 1.98 0 3 C-2.1875 4.75 -2.1875 4.75 -5 6 C-7.8125 5.6875 -7.8125 5.6875 -10 5 C-7.90217213 2.90217213 -6.6200793 2.3490604 -3.875 1.375 C-3.15054687 1.11460937 -2.42609375 0.85421875 -1.6796875 0.5859375 C-0.84824219 0.29589844 -0.84824219 0.29589844 0 0 Z " fill="#964427" transform="translate(280,296)"/>
<path d="M0 0 C0.66 0 1.32 0 2 0 C1.42655063 2.86724686 1.1385485 3.8614515 -1 6 C-2.64991582 6.70710678 -4.31562256 7.37943989 -6 8 C-2.25 2.25 -2.25 2.25 0 0 Z " fill="#AD613B" transform="translate(136,238)"/>
<path d="M0 0 C-1.28965176 1.37562854 -2.62689293 2.70766393 -4 4 C-4.66 4 -5.32 4 -6 4 C-6.33 5.32 -6.66 6.64 -7 8 C-7.66 8 -8.32 8 -9 8 C-7.53679654 1.41558442 -7.53679654 1.41558442 -5.0625 -0.5 C-3 -1 -3 -1 0 0 Z " fill="#B26643" transform="translate(116,212)"/>
<path d="M0 0 C0.99 0.99 1.98 1.98 3 3 C-1.455 5.97 -1.455 5.97 -6 9 C-5.34 7.35 -4.68 5.7 -4 4 C-3.01 3.67 -2.02 3.34 -1 3 C-0.67 2.01 -0.34 1.02 0 0 Z " fill="#B06341" transform="translate(202,355)"/>
<path d="M0 0 C0.33 0.99 0.66 1.98 1 3 C-2.44450737 5.29633824 -4.93812283 5.54016485 -9 6 C-6.45543849 3.03134491 -3.51005335 1.6380249 0 0 Z " fill="#AF6948" transform="translate(227,57)"/>
<path d="M0 0 C-5.14285714 4.42857143 -5.14285714 4.42857143 -9 5 C-9 4.01 -9 3.02 -9 2 C-3.375 -1.125 -3.375 -1.125 0 0 Z " fill="#E5B396" transform="translate(128,247)"/>
<path d="M0 0 C0.66 0.33 1.32 0.66 2 1 C1.835 2.11375 1.67 3.2275 1.5 4.375 C0.9544542 7.72032033 0.9544542 7.72032033 1 10 C-0.32 10 -1.64 10 -3 10 C-2.01 6.7 -1.02 3.4 0 0 Z " fill="#F0DCD0" transform="translate(323,187)"/>
<path d="M0 0 C0 3 0 3 -1 6 C-2.95597184 7.39712274 -4.95436401 8.73779907 -7 10 C-7.66 9.67 -8.32 9.34 -9 9 C-6.03 6.03 -3.06 3.06 0 0 Z " fill="#A45F3D" transform="translate(153,112)"/>
<path d="M0 0 C7.48291572 6.15034169 7.48291572 6.15034169 10 10 C8.68 9.67 7.36 9.34 6 9 C6 8.34 6 7.68 6 7 C5.195625 6.773125 4.39125 6.54625 3.5625 6.3125 C2.716875 5.879375 1.87125 5.44625 1 5 C0.1875 2.375 0.1875 2.375 0 0 Z " fill="#F0DAA1" transform="translate(294,66)"/>
<path d="M0 0 C-1 3 -1 3 -4.0625 4.6875 C-5.031875 5.120625 -6.00125 5.55375 -7 6 C-7.99 5.34 -8.98 4.68 -10 4 C-8.71086513 3.32845067 -7.41859796 2.66291141 -6.125 2 C-5.40570313 1.62875 -4.68640625 1.2575 -3.9453125 0.875 C-2 0 -2 0 0 0 Z " fill="#F8E8DC" transform="translate(448,441)"/>
<path d="M0 0 C0.33 0.66 0.66 1.32 1 2 C1.99 2.33 2.98 2.66 4 3 C2.35 4.98 0.7 6.96 -1 9 C-2.0326802 6.21176345 -2.04509293 5.1322726 -1.0625 2.25 C-0.711875 1.5075 -0.36125 0.765 0 0 Z " fill="#C06E43" transform="translate(153,348)"/>
<path d="M0 0 C2.4375 0.6875 2.4375 0.6875 5 2 C5.6875 4.5625 5.6875 4.5625 6 7 C6.66 7.33 7.32 7.66 8 8 C7.01 8 6.02 8 5 8 C3.61328125 6.25 3.61328125 6.25 2.3125 4 C1.87550781 3.2575 1.43851563 2.515 0.98828125 1.75 C0.66214844 1.1725 0.33601563 0.595 0 0 Z " fill="#AF6949" transform="translate(47,382)"/>
<path d="M0 0 C2.32947183 2.11770166 3.88750845 4.03335588 5 7 C4.67 7.99 4.34 8.98 4 10 C2.68 9.01 1.36 8.02 0 7 C0.66 7 1.32 7 2 7 C1.34 4.69 0.68 2.38 0 0 Z " fill="#B06D4C" transform="translate(452,312)"/>
<path d="M0 0 C3.3 0.33 6.6 0.66 10 1 C6 3 6 3 4 3 C3.67 3.66 3.34 4.32 3 5 C3 4.01 3 3.02 3 2 C2.01 1.67 1.02 1.34 0 1 C0 0.67 0 0.34 0 0 Z " fill="#F1E0D2" transform="translate(80,409)"/>
<path d="M0 0 C-0.33 0.66 -0.66 1.32 -1 2 C-0.34 2.33 0.32 2.66 1 3 C-1.64 2.67 -4.28 2.34 -7 2 C-5.26578631 -1.46842738 -3.40984787 -1.13661596 0 0 Z " fill="#A85E39" transform="translate(89,407)"/>
<path d="M0 0 C2.6855594 2.6855594 3.06049974 5.37621328 4 9 C2.68 8.34 1.36 7.68 0 7 C0 4.69 0 2.38 0 0 Z " fill="#BD805F" transform="translate(461,330)"/>
<path d="M0 0 C0.66 0 1.32 0 2 0 C2.33 2.97 2.66 5.94 3 9 C0.9375 6.75 0.9375 6.75 -1 4 C-0.75 1.6875 -0.75 1.6875 0 0 Z " fill="#964828" transform="translate(325,133)"/>
<path d="M0 0 C0.33 0.99 0.66 1.98 1 3 C0.34 3 -0.32 3 -1 3 C-1 3.66 -1 4.32 -1 5 C-2.32 4.67 -3.64 4.34 -5 4 C-5 3.01 -5 2.02 -5 1 C-2 0 -2 0 0 0 Z " fill="#F4A73D" transform="translate(316,114)"/>
<path d="M0 0 C1.2077558 3.62326739 0.54311128 4.64146369 -1 8 C-1.33 7.01 -1.66 6.02 -2 5 C-2.66 5 -3.32 5 -4 5 C-3 2 -3 2 0 0 Z " fill="#A85D3A" transform="translate(320,192)"/>
<path d="M0 0 C1 2 1 2 0.375 4.0625 C-1 6 -1 6 -3.625 6.75 C-4.800625 6.87375 -4.800625 6.87375 -6 7 C-4.02 4.69 -2.04 2.38 0 0 Z " fill="#B7795D" transform="translate(143,122)"/>
<path d="M0 0 C0 3 0 3 -2.375 5.6875 C-5 8 -5 8 -7 8 C-5.50902342 4.2047869 -3.24299151 2.38957269 0 0 Z " fill="#BF6F45" transform="translate(195,104)"/>
<path d="M0 0 C1.6875 1.5 1.6875 1.5 3 3 C2.67 3.66 2.34 4.32 2 5 C-0.31 4.34 -2.62 3.68 -5 3 C-5 2.34 -5 1.68 -5 1 C-3 0 -3 0 0 0 Z " fill="#FAF5E3" transform="translate(291,60)"/>
<path d="M0 0 C-1.625 1.5625 -1.625 1.5625 -4 3 C-7.25 2.6875 -7.25 2.6875 -10 2 C-10 1.67 -10 1.34 -10 1 C-6.59437148 0.22157062 -3.49234244 -0.09978121 0 0 Z " fill="#F29E48" transform="translate(427,419)"/>
<path d="M0 0 C0.99 0 1.98 0 3 0 C3.33 2.31 3.66 4.62 4 7 C2.35 5.35 0.7 3.7 -1 2 C-0.67 1.34 -0.34 0.68 0 0 Z " fill="#A9603C" transform="translate(210,403)"/>
<path d="M0 0 C0.33 0.66 0.66 1.32 1 2 C0 4 0 4 -1.9375 4.75 C-2.618125 4.8325 -3.29875 4.915 -4 5 C-4.66 4.34 -5.32 3.68 -6 3 C-4.02 2.01 -2.04 1.02 0 0 Z " fill="#F9EDE6" transform="translate(190,370)"/>
<path d="M0 0 C0.66 0.33 1.32 0.66 2 1 C0.68 3.64 -0.64 6.28 -2 9 C-2.33 9 -2.66 9 -3 9 C-3.36923077 3.46153846 -3.36923077 3.46153846 -1.5 1.125 C-1.005 0.75375 -0.51 0.3825 0 0 Z " fill="#ECD4C7" transform="translate(86,200)"/>
</svg>
