<?xml version="1.0" encoding="UTF-8"?>
<svg version="1.1" xmlns="http://www.w3.org/2000/svg" width="150" height="150">
<!-- Background removed for transparency -->
<path d="M0 0 C-0.33 1.98 -0.66 3.96 -1 6 C-1.66 6 -2.32 6 -3 6 C-3 6.99 -3 7.98 -3 9 C-2.34 9 -1.68 9 -1 9 C-2.06578447 16.03417748 -5.42825453 21.96498179 -9 28 C-8.34 28 -7.68 28 -7 28 C-7 28.66 -7 29.32 -7 30 C-7.66 30 -8.32 30 -9 30 C-9.309375 30.78375 -9.61875 31.5675 -9.9375 32.375 C-11 35 -11 35 -12 37 C-11.34 37 -10.68 37 -10 37 C-10.33 40.63 -10.66 44.26 -11 48 C-9.824375 47.71125 -8.64875 47.4225 -7.4375 47.125 C-6.70144531 46.94453125 -5.96539062 46.7640625 -5.20703125 46.578125 C-3.32516683 46.08517644 -1.47052723 45.49017574 0.375 44.875 C4.97942983 43.7635859 9.28952258 43.82939921 14 44 C14 44.66 14 45.32 14 46 C14.556875 45.773125 15.11375 45.54625 15.6875 45.3125 C18 45 18 45 20.625 46.0625 C23.54896549 48.44784027 24.11719174 50.38851165 25 54 C23.25 54.6875 23.25 54.6875 21 55 C18.75 53.5625 18.75 53.5625 17 52 C17 52.66 17 53.32 17 54 C16.2575 53.649375 15.515 53.29875 14.75 52.9375 C12.15803818 51.77112661 12.15803818 51.77112661 10.09765625 52.5 C7.59007918 53.09770925 6.15931016 52.73423526 3.6875 52.0625 C-0.35390736 51.0655303 -3.85011964 50.82340935 -8 51 C-8.2236068 53.9254644 -8.2236068 53.9254644 -7 56 C-7.639375 56.825 -8.27875 57.65 -8.9375 58.5 C-11.46413081 62.23191406 -11.69360228 65.55723303 -12 70 C-11.34 70 -10.68 70 -10 70 C-10 90.46 -10 110.92 -10 132 C-13.3 132 -16.6 132 -20 132 C-20.02516911 126.50887364 -20.04307576 121.0177826 -20.05493164 115.52661133 C-20.05988655 113.6678814 -20.06665237 111.80915521 -20.07543945 109.95043945 C-20.12456275 99.27334671 -20.01763216 88.65900973 -19.2646637 78.0040741 C-19.02964433 74.42534885 -19.00945462 71.44243932 -20 68 C-19.34 68 -18.68 68 -18 68 C-18.47734451 63.13108603 -19.47468917 60.13232681 -22 56 C-21.1654738 53.49642139 -20.20628008 51.33214148 -19 49 C-26.45218974 48.6846252 -32.85257544 48.77542913 -39.87890625 51.44140625 C-42.30662497 52.08075022 -43.65260154 51.80375775 -46 51 C-43.80194411 45.38274605 -43.80194411 45.38274605 -40.25 43.6875 C-36.84251922 42.96668676 -33.45789257 42.41494711 -30 42 C-31.39025391 41.90912109 -31.39025391 41.90912109 -32.80859375 41.81640625 C-34.00613281 41.73261719 -35.20367187 41.64882813 -36.4375 41.5625 C-37.63246094 41.48128906 -38.82742187 41.40007813 -40.05859375 41.31640625 C-43 41 -43 41 -44 40 C-45.32 40 -46.64 40 -48 40 C-48 39.34 -48 38.68 -48 38 C-48.94875 38.350625 -49.8975 38.70125 -50.875 39.0625 C-54 40 -54 40 -56 39 C-55.42655063 36.13275314 -55.1385485 35.1385485 -53 33 C-48.32164558 32.16457957 -44.19899402 31.93256225 -39.5 32.375 C-38.30890625 32.47941406 -38.30890625 32.47941406 -37.09375 32.5859375 C-35 33 -35 33 -33 35 C-32.2575 35.268125 -31.515 35.53625 -30.75 35.8125 C-27.20151012 37.34480245 -24.8920765 39.44421147 -22 42 C-22.763125 41.2575 -23.52625 40.515 -24.3125 39.75 C-27 37 -27 37 -28.625 34.75 C-29.97372834 32.70287125 -29.97372834 32.70287125 -33 32 C-33 31.34 -33 30.68 -33 30 C-33.99 29.67 -34.98 29.34 -36 29 C-37.84499398 27.12382302 -39.3683599 25.07262391 -41 23 C-40.34 23 -39.68 23 -39 23 C-39 22.01 -39 21.02 -39 20 C-40.98 20 -42.96 20 -45 20 C-45.33 18.35 -45.66 16.7 -46 15 C-39.77227723 13.65676568 -39.77227723 13.65676568 -36.1875 15.25 C-34 17 -34 17 -32 20 C-31.01 20.33 -30.02 20.66 -29 21 C-27.3125 23.0625 -27.3125 23.0625 -26 25 C-26 21.38612341 -26.7721067 20.73493108 -29 18 C-34.8810553 10.12997466 -34.8810553 10.12997466 -35.375 5.4375 C-35.25125 4.633125 -35.1275 3.82875 -35 3 C-31.62496331 4.1858237 -29.35277269 5.27573689 -27 8 C-27 7.34 -27 6.68 -27 6 C-26.34 6 -25.68 6 -25 6 C-22.8639341 8.49207688 -21.43353426 11.06826076 -20 14 C-19.47019531 15.05960938 -19.47019531 15.05960938 -18.9296875 16.140625 C-17.953125 18.09375 -16.9765625 20.046875 -16 22 C-15.34 22 -14.68 22 -14 22 C-13.67 19.69 -13.34 17.38 -13 15 C-12.67 15 -12.34 15 -12 15 C-11.773125 13.96875 -11.54625 12.9375 -11.3125 11.875 C-9.88572801 6.85072433 -5.80637599 0 0 0 Z " fill="#866A58" transform="translate(89,11)"/>
<path d="M0 0 C-0.33 1.98 -0.66 3.96 -1 6 C-1.66 6 -2.32 6 -3 6 C-3 6.99 -3 7.98 -3 9 C-2.34 9 -1.68 9 -1 9 C-2.06578447 16.03417748 -5.42825453 21.96498179 -9 28 C-8.34 28 -7.68 28 -7 28 C-7 28.66 -7 29.32 -7 30 C-7.66 30 -8.32 30 -9 30 C-9.309375 30.78375 -9.61875 31.5675 -9.9375 32.375 C-11 35 -11 35 -12 37 C-11.34 37 -10.68 37 -10 37 C-10.33 39.31 -10.66 41.62 -11 44 C-13.475 44.495 -13.475 44.495 -16 45 C-16.67260351 43.23141309 -17.33788395 41.46003984 -18 39.6875 C-18.37125 38.70136719 -18.7425 37.71523438 -19.125 36.69921875 C-20 34 -20 34 -20 31 C-20.99 30.67 -21.98 30.34 -23 30 C-23.67258667 27.66836622 -24.33847444 25.3347961 -25 23 C-26.77183014 20.53442406 -26.77183014 20.53442406 -29 18 C-34.86522911 10.28032345 -34.86522911 10.28032345 -35.375 5.4375 C-35.25125 4.633125 -35.1275 3.82875 -35 3 C-31.62496331 4.1858237 -29.35277269 5.27573689 -27 8 C-27 7.34 -27 6.68 -27 6 C-26.34 6 -25.68 6 -25 6 C-22.8639341 8.49207688 -21.43353426 11.06826076 -20 14 C-19.47019531 15.05960938 -19.47019531 15.05960938 -18.9296875 16.140625 C-17.953125 18.09375 -16.9765625 20.046875 -16 22 C-15.34 22 -14.68 22 -14 22 C-13.67 19.69 -13.34 17.38 -13 15 C-12.67 15 -12.34 15 -12 15 C-11.773125 13.96875 -11.54625 12.9375 -11.3125 11.875 C-9.88572801 6.85072433 -5.80637599 0 0 0 Z " fill="#4B8356" transform="translate(89,11)"/>
<path d="M0 0 C0.25 2.75 0.25 2.75 0 6 C-2 8.375 -2 8.375 -4 10 C-3.01 10 -2.02 10 -1 10 C-1.8125 12.4375 -1.8125 12.4375 -3 15 C-3.99 15.33 -4.98 15.66 -6 16 C-6 16.99 -6 17.98 -6 19 C-6.33 19.66 -6.66 20.32 -7 21 C-7.99 21.33 -8.98 21.66 -10 22 C-10 22.99 -10 23.98 -10 25 C-11.53125 27.04296875 -11.53125 27.04296875 -13.5 29.1875 C-14.1496875 29.90292969 -14.799375 30.61835937 -15.46875 31.35546875 C-16.22671875 32.16951172 -16.22671875 32.16951172 -17 33 C-14.81422642 31.96321623 -13.15953896 31.15953896 -11.4375 29.4375 C-10 28 -10 28 -7 27 C-6.34 26.01 -5.68 25.02 -5 24 C0.81405453 22.19696816 6.9438108 21.73083604 13 22 C13 22.66 13 23.32 13 24 C14.32 24.66 15.64 25.32 17 26 C16.34 26.99 15.68 27.98 15 29 C12.69 28.34 10.38 27.68 8 27 C8.33 27.99 8.66 28.98 9 30 C7.35 30 5.7 30 4 30 C4 30.66 4 31.32 4 32 C2.700625 31.938125 2.700625 31.938125 1.375 31.875 C-2.18562665 32.00687506 -4.66934915 32.77649561 -8 34 C-9.7634375 34.433125 -9.7634375 34.433125 -11.5625 34.875 C-15.14059266 36.04601214 -17.23579936 37.48709033 -20 40 C-20.66 39.67 -21.32 39.34 -22 39 C-21.34 36.69 -20.68 34.38 -20 32 C-19.34 32 -18.68 32 -18 32 C-18 29.36 -18 26.72 -18 24 C-17.34 24 -16.68 24 -16 24 C-15.8453125 22.4840625 -15.8453125 22.4840625 -15.6875 20.9375 C-14.96295233 16.78781792 -13.77730734 13.78643737 -12 10 C-11.34 10 -10.68 10 -10 10 C-9.9175 9.236875 -9.835 8.47375 -9.75 7.6875 C-8.83190183 4.39764824 -7.88115296 3.72869177 -5 2 C-1.31578947 0 -1.31578947 0 0 0 Z " fill="#4F8559" transform="translate(100,18)"/>
<path d="M0 0 C0.33 0.99 0.66 1.98 1 3 C1.99 3 2.98 3 4 3 C4 20.82 4 38.64 4 57 C1 55 1 55 0.27612305 53.23242188 C-1.27481323 45.46349634 -1.26952836 37.72742254 -1.20581055 29.84130859 C-1.18753732 27.50477136 -1.18530169 25.16863266 -1.18554688 22.83203125 C-1.16690342 15.16681946 -0.95206466 7.61651725 0 0 Z " fill="#A3836D" transform="translate(75,78)"/>
<path d="M0 0 C0 0.66 0 1.32 0 2 C0.556875 1.773125 1.11375 1.54625 1.6875 1.3125 C4 1 4 1 6.625 2.0625 C9.54896549 4.44784027 10.11719174 6.38851165 11 10 C9.25 10.6875 9.25 10.6875 7 11 C4.75 9.5625 4.75 9.5625 3 8 C3 8.66 3 9.32 3 10 C2.2575 9.649375 1.515 9.29875 0.75 8.9375 C-1.83957436 7.77294018 -1.83957436 7.77294018 -3.890625 8.4921875 C-6.41261454 9.09933313 -7.98876286 8.78520884 -10.5 8.1875 C-11.2528125 8.01605469 -12.005625 7.84460937 -12.78125 7.66796875 C-15.01624052 6.99511069 -16.94857339 6.10497297 -19 5 C-17.40752467 2.2574036 -16.52908147 1.15485311 -13.4375 0.25 C-8.95114235 -0.07628056 -4.49575652 -0.07996405 0 0 Z " fill="#478051" transform="translate(103,55)"/>
<path d="M0 0 C0.99 -0.33 1.98 -0.66 3 -1 C6.375 -0.1875 6.375 -0.1875 10 1 C10.94875 1.28875 11.8975 1.5775 12.875 1.875 C15 3 15 3 15.875 5.0625 C15.91625 5.701875 15.9575 6.34125 16 7 C15 8 15 8 11.875 8.1328125 C10.59625 8.13023438 9.3175 8.12765625 8 8.125 C6.72125 8.12757812 5.4425 8.13015625 4.125 8.1328125 C1 8 1 8 0 7 C-1.32 7 -2.64 7 -4 7 C-4 6.34 -4 5.68 -4 5 C-5.423125 5.5259375 -5.423125 5.5259375 -6.875 6.0625 C-10 7 -10 7 -12 6 C-11.42655063 3.13275314 -11.1385485 2.1385485 -9 0 C-5.68447329 -1.25761358 -3.40379838 -0.69821505 0 0 Z " fill="#4F8359" transform="translate(45,44)"/>
<path d="M0 0 C1.35308313 1.31328657 2.68870078 2.64499081 4 4 C4.99 4.33 5.98 4.66 7 5 C8.75 6.6875 8.75 6.6875 10 9 C9.6875 12.25 9.6875 12.25 9 15 C7.02 15.33 5.04 15.66 3 16 C3 15.34 3 14.68 3 14 C2.01 13.67 1.02 13.34 0 13 C-1.84499398 11.12382302 -3.3683599 9.07262391 -5 7 C-4.34 7 -3.68 7 -3 7 C-3 6.01 -3 5.02 -3 4 C-4.98 4 -6.96 4 -9 4 C-9.33 2.35 -9.66 0.7 -10 -1 C-5.94051788 -2.15985203 -3.72865037 -2.00773481 0 0 Z " fill="#53875D" transform="translate(53,27)"/>
<path d="M0 0 C2 2 2 2 2 6 C3.32 6.33 4.64 6.66 6 7 C7.24200752 12.3177215 8.30834212 17.58201328 9 23 C7.68 22.34 6.36 21.68 5 21 C4.67 21.66 4.34 22.32 4 23 C1.03 21.35 -1.94 19.7 -5 18 C-4.67 16.35 -4.34 14.7 -4 13 C-1.69 14.65 0.62 16.3 3 18 C2.236875 17.2575 1.47375 16.515 0.6875 15.75 C-5 9.93023256 -5 9.93023256 -5 7 C-4 6 -3 5 -2 4 C-0.82425289 1.90010348 -0.82425289 1.90010348 0 0 Z " fill="#60946B" transform="translate(64,35)"/>
<path d="M0 0 C0.8971875 0.7425 0.8971875 0.7425 1.8125 1.5 C1.8125 0.84 1.8125 0.18 1.8125 -0.5 C3.1325 0.16 4.4525 0.82 5.8125 1.5 C4.8225 1.995 4.8225 1.995 3.8125 2.5 C3.8125 3.16 3.8125 3.82 3.8125 4.5 C2.99007812 4.46519531 2.16765625 4.43039063 1.3203125 4.39453125 C-5.33543247 4.23313328 -10.81822001 4.57067791 -17.06640625 6.94140625 C-19.49412497 7.58075022 -20.84010154 7.30375775 -23.1875 6.5 C-21.82893007 3.02809908 -21.01590663 0.95562365 -17.6875 -0.875 C-11.64275877 -1.95441808 -5.65837172 -2.66276316 0 0 Z " fill="#54885E" transform="translate(66.1875,55.5)"/>
<path d="M0 0 C3.37503669 1.1858237 5.64722731 2.27573689 8 5 C8 4.34 8 3.68 8 3 C8.66 3 9.32 3 10 3 C12.13356746 5.48916203 13.57724169 8.06556098 15 11 C15.556875 11.86625 16.11375 12.7325 16.6875 13.625 C17.120625 14.40875 17.55375 15.1925 18 16 C17.67 16.66 17.34 17.32 17 18 C16.401875 17.360625 15.80375 16.72125 15.1875 16.0625 C13.09189663 13.79689611 13.09189663 13.79689611 10 13 C10.34444881 15.47266765 10.34444881 15.47266765 11 18 C11.66 18.33 12.32 18.66 13 19 C12.67 19.66 12.34 20.32 12 21 C5.73964497 16.10059172 5.73964497 16.10059172 4 12 C2.948125 10.576875 2.948125 10.576875 1.875 9.125 C-0.18214631 5.69642282 -0.37305442 3.9170714 0 0 Z " fill="#54855C" transform="translate(54,14)"/>
<path d="M0 0 C0.99 0.33 1.98 0.66 3 1 C3.04898438 2.03898437 3.09796875 3.07796875 3.1484375 4.1484375 C2.89389479 16.90541661 2.89389479 16.90541661 7 28 C7.04080783 29.99958364 7.04254356 32.00045254 7 34 C4.69 34 2.38 34 0 34 C0 31.03 0 28.06 0 25 C1.32 25.33 2.64 25.66 4 26 C3.67 23.69 3.34 21.38 3 19 C2.34 19 1.68 19 1 19 C0.67 19.66 0.34 20.32 0 21 C0 14.07 0 7.14 0 0 Z " fill="#876853" transform="translate(71,106)"/>
<path d="M0 0 C0.33 0 0.66 0 1 0 C1 1.98 1 3.96 1 6 C0.34 6 -0.32 6 -1 6 C-1.1546875 6.9590625 -1.1546875 6.9590625 -1.3125 7.9375 C-2.23903073 12.06477326 -3.61660629 16.00642949 -5 20 C-5.66 20 -6.32 20 -7 20 C-7 22.64 -7 25.28 -7 28 C-7.66 28 -8.32 28 -9 28 C-9.33 30.97 -9.66 33.94 -10 37 C-10.66 37 -11.32 37 -12 37 C-11.85892253 35.54119891 -11.71197585 34.08296449 -11.5625 32.625 C-11.48128906 31.81289063 -11.40007812 31.00078125 -11.31640625 30.1640625 C-11 28 -11 28 -10 26 C-10.66 26 -11.32 26 -12 26 C-10.125 21.25 -10.125 21.25 -9 19 C-8.34 19 -7.68 19 -7 19 C-7 18.34 -7 17.68 -7 17 C-7.66 17 -8.32 17 -9 17 C-8.71125 16.505 -8.4225 16.01 -8.125 15.5 C-6.58711584 12.08247965 -5.85152195 8.6493798 -5 5 C-4.34 5 -3.68 5 -3 5 C-2.690625 4.360625 -2.38125 3.72125 -2.0625 3.0625 C-1 1 -1 1 0 0 Z " fill="#C5DAC7" transform="translate(89,22)"/>
<path d="M0 0 C0.33 0 0.66 0 1 0 C1.33 6.93 1.66 13.86 2 21 C2.66 21 3.32 21 4 21 C4.33 23.31 4.66 25.62 5 28 C3.68 27.67 2.36 27.34 1 27 C1 29.97 1 32.94 1 36 C3.31 36 5.62 36 8 36 C8.33 36.99 8.66 37.98 9 39 C5.7 39 2.4 39 -1 39 C-1.02501955 35.05306991 -1.04300863 31.10617158 -1.05493164 27.15917969 C-1.06233777 25.16860325 -1.07505474 23.17804883 -1.08789062 21.1875 C-1.10589603 14.05736081 -0.92522041 7.07423314 0 0 Z " fill="#947C6D" transform="translate(70,104)"/>
<path d="M0 0 C0.66 0.33 1.32 0.66 2 1 C1.76373342 5.66379587 1.51525984 10.3267185 1.25537109 14.98925781 C1.16866259 16.57599104 1.08531285 18.16291147 1.00537109 19.75 C0.88998557 22.02922022 0.76259844 24.30749764 0.6328125 26.5859375 C0.59938751 27.29744965 0.56596252 28.00896179 0.53152466 28.74203491 C0.22774341 33.77225659 0.22774341 33.77225659 -2 36 C-5.19450436 30.12211198 -5.45582626 25.53479906 -4 19 C-3.67644531 18.40058594 -3.35289063 17.80117187 -3.01953125 17.18359375 C-1.53465152 14.00333409 -1.27272392 10.699114 -0.875 7.25 C-0.78863281 6.55261719 -0.70226562 5.85523437 -0.61328125 5.13671875 C-0.40228154 3.42527668 -0.20024499 1.71273371 0 0 Z " fill="#8E6C56" transform="translate(74,73)"/>
<path d="M0 0 C0.33 0 0.66 0 1 0 C1.81134813 8.93407031 2.15547241 17.78095487 2.125 26.75 C2.12886719 27.90371094 2.13273437 29.05742188 2.13671875 30.24609375 C2.12949359 36.58255711 1.84193924 42.71886596 1 49 C0.67 49 0.34 49 0 49 C-0.71540343 37.0808678 -1.10590943 25.19194639 -1.125 13.25 C-1.12951172 12.0539917 -1.13402344 10.8579834 -1.13867188 9.62573242 C-1.13577148 7.96247925 -1.13577148 7.96247925 -1.1328125 6.265625 C-1.13168457 5.27336914 -1.13055664 4.28111328 -1.12939453 3.25878906 C-1 1 -1 1 0 0 Z " fill="#8D705C" transform="translate(77,82)"/>
<path d="M0 0 C0.33 0.66 0.66 1.32 1 2 C1.99 1.67 2.98 1.34 4 1 C6.62420914 4.36226796 7.93779792 6.4668393 8.4375 10.75 C8.2209375 12.35875 8.2209375 12.35875 8 14 C7.01 14.66 6.02 15.32 5 16 C4.01 15.67 3.02 15.34 2 15 C1.67 13.02 1.34 11.04 1 9 C1.66 9 2.32 9 3 9 C3 8.34 3 7.68 3 7 C1.68 6.34 0.36 5.68 -1 5 C-0.67 3.35 -0.34 1.7 0 0 Z " fill="#478150" transform="translate(64,26)"/>
<path d="M0 0 C2.31 0.66 4.62 1.32 7 2 C4.36827222 4.91369861 2.77090727 6.12012164 -1 7 C-1.99 8.485 -1.99 8.485 -3 10 C-4.63790712 11.04644066 -6.31008021 12.0398183 -8 13 C-10.00580329 14.32458708 -12.00715862 15.6559907 -14 17 C-12.6095914 12.52857233 -10.54544919 10.37420265 -7 7.375 C-4.16860062 4.96337204 -2.07094961 3.10642441 0 0 Z " fill="#F8FBF8" transform="translate(96,36)"/>
<path d="M0 0 C1.134375 0.020625 2.26875 0.04125 3.4375 0.0625 C3.4375 0.7225 3.4375 1.3825 3.4375 2.0625 C4.7575 2.7225 6.0775 3.3825 7.4375 4.0625 C6.4475 5.5475 6.4475 5.5475 5.4375 7.0625 C4.385625 6.876875 3.33375 6.69125 2.25 6.5 C-1.39640866 5.86519713 -1.39640866 5.86519713 -4.25 6.6875 C-6.5625 7.0625 -6.5625 7.0625 -8.875 5.625 C-9.431875 5.109375 -9.98875 4.59375 -10.5625 4.0625 C-9.593125 3.588125 -8.62375 3.11375 -7.625 2.625 C-2.56831395 0.04505814 -2.56831395 0.04505814 0 0 Z " fill="#478151" transform="translate(109.5625,39.9375)"/>
<path d="M0 0 C2.67868487 1.33934244 2.74954078 2.51692397 3.6875 5.3125 C3.95949219 6.09238281 4.23148438 6.87226562 4.51171875 7.67578125 C5.03839183 10.18274511 4.8178554 11.60132343 4 14 C3.01 13.34 2.02 12.68 1 12 C0.67 12.66 0.34 13.32 0 14 C-2.97 12.35 -5.94 10.7 -9 9 C-8.67 7.35 -8.34 5.7 -8 4 C-5.36 5.65 -2.72 7.3 0 9 C0 6.03 0 3.06 0 0 Z " fill="#9CBEA1" transform="translate(68,44)"/>
<path d="M0 0 C2.17194355 2.63736003 4.17893993 5.27112111 6.0625 8.125 C7.59607761 10.40063129 8.9779163 12.18012467 11 14 C10.34 14 9.68 14 9 14 C8.67 14.66 8.34 15.32 8 16 C7.401875 15.175 6.80375 14.35 6.1875 13.5 C5.465625 12.675 4.74375 11.85 4 11 C3.01 11 2.02 11 1 11 C0.938125 10.38125 0.87625 9.7625 0.8125 9.125 C0.171081 6.72238859 0.171081 6.72238859 -2.5625 5.75 C-3.366875 5.5025 -4.17125 5.255 -5 5 C-4 3 -4 3 -1 2 C-0.67 1.34 -0.34 0.68 0 0 Z " fill="#ECF6EE" transform="translate(55,21)"/>
<path d="M0 0 C-0.33 0.33 -0.66 0.66 -1 1 C-0.01 1.66 0.98 2.32 2 3 C1.030625 3.268125 0.06125 3.53625 -0.9375 3.8125 C-4.71525111 4.87643807 -8.39398202 6.17234115 -12.08203125 7.51171875 C-14 8 -14 8 -16 7 C-14.61341021 5.84299806 -13.21527559 4.69982377 -11.8125 3.5625 C-11.03519531 2.92441406 -10.25789063 2.28632812 -9.45703125 1.62890625 C-6.28278958 -0.47547972 -3.56084929 -1.78042464 0 0 Z " fill="#EDF7EB" transform="translate(94,52)"/>
<path d="M0 0 C0.66 0.33 1.32 0.66 2 1 C1.67 1.66 1.34 2.32 1 3 C2.32 3 3.64 3 5 3 C5.66 2.34 6.32 1.68 7 1 C7.33 1.66 7.66 2.32 8 3 C7.67 3.66 7.34 4.32 7 5 C5.10185872 5.52984925 3.17967284 5.97494588 1.25 6.375 C-3.40555294 7.45575336 -6.59201884 8.47030523 -10 12 C-10.66 11.67 -11.32 11.34 -12 11 C-11.67 10.01 -11.34 9.02 -11 8 C-10.34 8 -9.68 8 -9 8 C-8.67 7.34 -8.34 6.68 -8 6 C-6.01310269 4.64721885 -4.01254782 3.31431695 -2 2 C-1.34 1.34 -0.68 0.68 0 0 Z " fill="#648E6C" transform="translate(90,46)"/>
<path d="M0 0 C3.69287153 0.90270193 5.55368289 1.40491051 7.875 4.5 C9 7 9 7 9 9 C7.25 9.6875 7.25 9.6875 5 10 C2.75 8.5625 2.75 8.5625 1 7 C1 7.66 1 8.32 1 9 C-0.32 8.34 -1.64 7.68 -3 7 C-1.35 6.34 0.3 5.68 2 5 C1.34 3.35 0.68 1.7 0 0 Z " fill="#5B8964" transform="translate(105,56)"/>
<path d="M0 0 C0.99 1.485 0.99 1.485 2 3 C3.32 3 4.64 3 6 3 C6.2519555 6.02346601 6.20421041 7.6402007 4.6875 10.3125 C4.130625 10.869375 3.57375 11.42625 3 12 C2.01 12 1.02 12 0 12 C0.2784375 10.9790625 0.2784375 10.9790625 0.5625 9.9375 C1.08523943 6.42767809 0.61378577 3.47811937 0 0 Z " fill="#46814F" transform="translate(76,26)"/>
<path d="M0 0 C4.66666667 2.33333333 4.66666667 2.33333333 6 6 C6 6.99 6 7.98 6 9 C4.02 9 2.04 9 0 9 C0 6.03 0 3.06 0 0 Z " fill="#7B614E" transform="translate(71,131)"/>
<path d="M0 0 C0.33 0 0.66 0 1 0 C1 1.98 1 3.96 1 6 C0.34 6 -0.32 6 -1 6 C-1.2165625 7.175625 -1.2165625 7.175625 -1.4375 8.375 C-2 11 -2 11 -3 13 C-3.66 13 -4.32 13 -5 13 C-5 10.36 -5 7.72 -5 5 C-4.34 5 -3.68 5 -3 5 C-2.5359375 4.0409375 -2.5359375 4.0409375 -2.0625 3.0625 C-1 1 -1 1 0 0 Z " fill="#DFEEE1" transform="translate(89,22)"/>
<path d="M0 0 C2.475 0.99 2.475 0.99 5 2 C5 3.32 5 4.64 5 6 C5.66 6 6.32 6 7 6 C7.33 6.99 7.66 7.98 8 9 C4 9 4 9 1.75 7.875 C0 6 0 6 -0.25 2.8125 C-0.1675 1.884375 -0.085 0.95625 0 0 Z " fill="#508258" transform="translate(54,14)"/>
<path d="M0 0 C4.75 0.75 4.75 0.75 7 3 C6.01 3.66 5.02 4.32 4 5 C3.67 5.99 3.34 6.98 3 8 C2.01 8.33 1.02 8.66 0 9 C0 6.03 0 3.06 0 0 Z " fill="#7B614B" transform="translate(70,58)"/>
<path d="M0 0 C0 0.99 0 1.98 0 3 C-5.61 3 -11.22 3 -17 3 C-16.67 2.34 -16.34 1.68 -16 1 C-10.74469407 -0.34751434 -5.38420602 -0.09576651 0 0 Z " fill="#5D8A65" transform="translate(103,55)"/>
<path d="M0 0 C0.66 1.32 1.32 2.64 2 4 C5.465 3.505 5.465 3.505 9 3 C8 6 8 6 5.625 7.3125 C4.75875 7.539375 3.8925 7.76625 3 8 C0.61993038 6.41328692 -1.14366088 5.12153042 -3 3 C-3 2.34 -3 1.68 -3 1 C-2.01 0.67 -1.02 0.34 0 0 Z " fill="#70755B" transform="translate(76,55)"/>
<path d="M0 0 C0.66 0.66 1.32 1.32 2 2 C0.25 4 0.25 4 -2 6 C-3.32 6 -4.64 6 -6 6 C-6 5.34 -6 4.68 -6 4 C-6.99 3.34 -7.98 2.68 -9 2 C-8.67 1.67 -8.34 1.34 -8 1 C-5.66666667 1 -3.33333333 1 -1 1 C-0.67 0.67 -0.34 0.34 0 0 Z " fill="#478050" transform="translate(47,45)"/>
<path d="M0 0 C1.03145371 1.30915279 2.03542166 2.64082143 3 4 C-1.455 4.495 -1.455 4.495 -6 5 C-6.33 3.35 -6.66 1.7 -7 0 C-2.25 -1.125 -2.25 -1.125 0 0 Z " fill="#5E8D68" transform="translate(50,26)"/>
<path d="M0 0 C0 1.98 0 3.96 0 6 C-3 6 -6 6 -9 6 C-3.4 0 -3.4 0 0 0 Z " fill="#5B8963" transform="translate(100,18)"/>
<path d="M0 0 C0.33 0 0.66 0 1 0 C1.02505615 0.61520508 1.0501123 1.23041016 1.07592773 1.86425781 C1.19218487 4.65970156 1.31477642 7.45483298 1.4375 10.25 C1.47681641 11.21808594 1.51613281 12.18617187 1.55664062 13.18359375 C1.59853516 14.11816406 1.64042969 15.05273438 1.68359375 16.015625 C1.72025146 16.87446289 1.75690918 17.73330078 1.79467773 18.61816406 C1.98703514 20.84960143 2.38846244 22.84982524 3 25 C0 23 0 23 -0.75 19.8125 C-1.37179738 13.24095517 -0.55513073 6.55908308 0 0 Z " fill="#9D7B67" transform="translate(76,110)"/>
<path d="M0 0 C2.125 0.375 2.125 0.375 4 1 C3.67 1.66 3.34 2.32 3 3 C3.99 3.66 4.98 4.32 6 5 C-0.75 7.125 -0.75 7.125 -3 6 C-2.42655063 3.13275314 -2.1385485 2.1385485 0 0 Z " fill="#658D6B" transform="translate(36,44)"/>
<path d="M0 0 C0.99 1.32 1.98 2.64 3 4 C1.95125002 6.62187494 1.35068687 7.79371361 -1.125 9.25 C-1.74375 9.4975 -2.3625 9.745 -3 10 C-4 9 -4 9 -4.0625 6.4375 C-4.041875 5.633125 -4.02125 4.82875 -4 4 C-2.68 4 -1.36 4 0 4 C0 2.68 0 1.36 0 0 Z " fill="#60926A" transform="translate(75,29)"/>
<path d="M0 0 C1.64666203 0.1135629 3.29236082 0.24117381 4.9375 0.375 C5.85402344 0.44460937 6.77054687 0.51421875 7.71484375 0.5859375 C8.84599609 0.79089844 8.84599609 0.79089844 10 1 C10.33 1.66 10.66 2.32 11 3 C10.67 3.66 10.34 4.32 10 5 C6.7 4.67 3.4 4.34 0 4 C0 2.68 0 1.36 0 0 Z " fill="#60946C" transform="translate(90,59)"/>
<path d="M0 0 C3.73209414 1.24403138 5.30708475 3.17243898 8 6 C8.598125 6.598125 9.19625 7.19625 9.8125 7.8125 C10.204375 8.204375 10.59625 8.59625 11 9 C10.67 9.66 10.34 10.32 10 11 C9.55269531 10.59007812 9.10539062 10.18015625 8.64453125 9.7578125 C5.26255515 6.74359926 2.420332 4.33949455 -2 3 C-1.34 2.01 -0.68 1.02 0 0 Z " fill="#DCF1DF" transform="translate(57,43)"/>
<path d="M0 0 C2.80045623 3.14591933 3.35261589 5.067064 3.1875 9.25 C3.16042969 10.14203125 3.13335937 11.0340625 3.10546875 11.953125 C3.07066406 12.62859375 3.03585938 13.3040625 3 14 C2.70480469 13.39285156 2.40960938 12.78570312 2.10546875 12.16015625 C0.98947028 9.88254441 0.98947028 9.88254441 -0.6875 7.4375 C-1.3371875 6.2309375 -1.3371875 6.2309375 -2 5 C-1 2 -1 2 0 0 Z " fill="#8A7568" transform="translate(69,62)"/>
<path d="M0 0 C1.32 0.66 2.64 1.32 4 2 C3.01 2.495 3.01 2.495 2 3 C2 3.66 2 4.32 2 5 C-0.31 5 -2.62 5 -5 5 C-5 3.68 -5 2.36 -5 1 C-2.525 1.495 -2.525 1.495 0 2 C0 1.34 0 0.68 0 0 Z " fill="#4B7E55" transform="translate(68,55)"/>
<path d="M0 0 C1.32 0.66 2.64 1.32 4 2 C3.29875 2.4125 2.5975 2.825 1.875 3.25 C-1.14153323 5.08615066 -4.07249245 7.02563445 -7 9 C-5.64978174 4.58110387 -3.73884332 2.65654657 0 0 Z " fill="#D5E9D6" transform="translate(89,44)"/>
<path d="M0 0 C0.58305225 3.84814487 -0.2997117 5.76308635 -2.5 8.8125 C-3.32219744 9.88364055 -4.15204049 10.9491359 -5 12 C-5.33 10.68 -5.66 9.36 -6 8 C-5.34 8 -4.68 8 -4 8 C-4.061875 7.05125 -4.12375 6.1025 -4.1875 5.125 C-4.125625 4.09375 -4.06375 3.0625 -4 2 C-1 0 -1 0 0 0 Z " fill="#4A7F55" transform="translate(86,42)"/>
<path d="M0 0 C2.29013653 3.4352048 2.17842973 4.985331 2 9 C0.35 7.68 -1.3 6.36 -3 5 C-2.625 3.0625 -2.625 3.0625 -2 1 C-1.34 0.67 -0.68 0.34 0 0 Z " fill="#4F8058" transform="translate(67,44)"/>
<path d="M0 0 C2.64 0 5.28 0 8 0 C8.33 0.99 8.66 1.98 9 3 C5.7 3 2.4 3 -1 3 C-0.67 2.01 -0.34 1.02 0 0 Z " fill="#799177" transform="translate(70,140)"/>
<path d="M0 0 C2.86207152 1.28299758 5.0245088 2.530636 7 5 C7 5.99 7 6.98 7 8 C6.01 7.67 5.02 7.34 4 7 C4 6.34 4 5.68 4 5 C2.68 4.67 1.36 4.34 0 4 C0 2.68 0 1.36 0 0 Z " fill="#E7F3E9" transform="translate(55,11)"/>
<path d="M0 0 C1.32 0 2.64 0 4 0 C4 0.66 4 1.32 4 2 C5.32 2.66 6.64 3.32 8 4 C7.01 5.485 7.01 5.485 6 7 C4.68 6.34 3.36 5.68 2 5 C2 4.01 2 3.02 2 2 C1.34 1.34 0.68 0.68 0 0 Z " fill="#638C6C" transform="translate(109,40)"/>
<path d="M0 0 C1.32 0.33 2.64 0.66 4 1 C4.33 2.65 4.66 4.3 5 6 C4.34 6 3.68 6 3 6 C2.67 6.66 2.34 7.32 2 8 C1.34 5.36 0.68 2.72 0 0 Z " fill="#54885E" transform="translate(69,43)"/>
<path d="M0 0 C1.32 0.33 2.64 0.66 4 1 C3.34 2.65 2.68 4.3 2 6 C0.35 6 -1.3 6 -3 6 C-3 5.01 -3 4.02 -3 3 C-2.01 3 -1.02 3 0 3 C0 2.01 0 1.02 0 0 Z " fill="#5D8A67" transform="translate(95,27)"/>
<path d="M0 0 C2.3828125 0.2421875 2.3828125 0.2421875 5.125 0.875 C6.03507812 1.07867187 6.94515625 1.28234375 7.8828125 1.4921875 C8.58148438 1.65976562 9.28015625 1.82734375 10 2 C10 2.33 10 2.66 10 3 C8.37675914 3.22162329 6.751279 3.42689803 5.125 3.625 C3.76761719 3.79902344 3.76761719 3.79902344 2.3828125 3.9765625 C1.59648438 3.98429687 0.81015625 3.99203125 0 4 C-0.66 3.34 -1.32 2.68 -2 2 C-1.34 1.34 -0.68 0.68 0 0 Z " fill="#D6E9D6" transform="translate(51,51)"/>
<path d="M0 0 C-0.33 0.33 -0.66 0.66 -1 1 C-0.01 1.66 0.98 2.32 2 3 C-0.31 3.66 -2.62 4.32 -5 5 C-5.33 4.34 -5.66 3.68 -6 3 C-5.34 3 -4.68 3 -4 3 C-4 2.34 -4 1.68 -4 1 C-4.99 0.67 -5.98 0.34 -7 0 C-2.25 -1.125 -2.25 -1.125 0 0 Z " fill="#E1F1E5" transform="translate(94,52)"/>
<path d="M0 0 C1.32 0 2.64 0 4 0 C4.33 0.99 4.66 1.98 5 3 C3.59554165 5.2636564 1.8032087 7.0208685 0 9 C-0.99 8.01 -1.98 7.02 -3 6 C-1.68 6 -0.36 6 1 6 C1.6814823 4.10820797 1.6814823 4.10820797 2 2 C1.34 1.34 0.68 0.68 0 0 Z " fill="#CCE4CE" transform="translate(92,33)"/>
<path d="M0 0 C0 0.66 0 1.32 0 2 C1.98 1.34 3.96 0.68 6 0 C5.67 0.99 5.34 1.98 5 3 C1.37 3.33 -2.26 3.66 -6 4 C-6 3.34 -6 2.68 -6 2 C-3 0 -3 0 0 0 Z " fill="#CEE6D2" transform="translate(41,49)"/>
<path d="M0 0 C0.66 0 1.32 0 2 0 C2.28875 1.134375 2.5775 2.26875 2.875 3.4375 C3.24625 4.613125 3.6175 5.78875 4 7 C4.66 7.33 5.32 7.66 6 8 C5.67 8.66 5.34 9.32 5 10 C3.02 8.35 1.04 6.7 -1 5 C-0.67 3.35 -0.34 1.7 0 0 Z " fill="#63926D" transform="translate(61,25)"/>
<path d="M0 0 C2.50037734 2.17424117 3.43628586 3.73045798 4 7 C2.68 7.33 1.36 7.66 0 8 C-0.66 7.01 -1.32 6.02 -2 5 C-0.68 4.67 0.64 4.34 2 4 C1.01 3.67 0.02 3.34 -1 3 C-0.67 2.01 -0.34 1.02 0 0 Z " fill="#6E9074" transform="translate(110,58)"/>
<path d="M0 0 C-2.31 1.65 -4.62 3.3 -7 5 C-7.33 4.01 -7.66 3.02 -8 2 C-7.34 2 -6.68 2 -6 2 C-6 1.34 -6 0.68 -6 0 C-4 -1 -4 -1 0 0 Z " fill="#E6F4E8" transform="translate(88,11)"/>
<path d="M0 0 C2.31 0.33 4.62 0.66 7 1 C4.23776722 3.76223278 1.79293383 3.57856291 -2 4 C-1.34 2.68 -0.68 1.36 0 0 Z " fill="#588363" transform="translate(45,59)"/>
<path d="M0 0 C0.33 0 0.66 0 1 0 C1 1.65 1 3.3 1 5 C-0.65 5.33 -2.3 5.66 -4 6 C-4.33 5.01 -4.66 4.02 -5 3 C-3.35 2.67 -1.7 2.34 0 2 C0 1.34 0 0.68 0 0 Z " fill="#57865D" transform="translate(77,50)"/>
<path d="M0 0 C0.33 0 0.66 0 1 0 C1.33 4.62 1.66 9.24 2 14 C-1 10 -1 10 -1.07421875 7.421875 C-0.94660156 6.54015625 -0.81898437 5.6584375 -0.6875 4.75 C-0.56761719 3.85796875 -0.44773437 2.9659375 -0.32421875 2.046875 C-0.21722656 1.37140625 -0.11023438 0.6959375 0 0 Z " fill="#8E786A" transform="translate(70,92)"/>
<path d="M0 0 C0.66 0 1.32 0 2 0 C1.67 2.31 1.34 4.62 1 7 C0.67 6.34 0.34 5.68 0 5 C-0.66 5 -1.32 5 -2 5 C-1.125 1.125 -1.125 1.125 0 0 Z " fill="#EBF6ED" transform="translate(80,42)"/>
<path d="M0 0 C0.66 0.66 1.32 1.32 2 2 C0.33657163 3.66342837 -1.7825709 3.36048097 -4.0625 3.5625 C-4.98160156 3.64628906 -5.90070313 3.73007812 -6.84765625 3.81640625 C-7.55792969 3.87699219 -8.26820312 3.93757813 -9 4 C-8 2 -8 2 -6.22265625 1.296875 C-5.15337891 1.02617188 -5.15337891 1.02617188 -4.0625 0.75 C-2.99708984 0.46382812 -2.99708984 0.46382812 -1.91015625 0.171875 C-1.27980469 0.11515625 -0.64945313 0.0584375 0 0 Z " fill="#6E9577" transform="translate(103,40)"/>
<path d="M0 0 C2.46800047 1.15173355 4.04783565 2.04783565 6 4 C5.34 4 4.68 4 4 4 C3.67 4.66 3.34 5.32 3 6 C1.5 4.6875 1.5 4.6875 0 3 C0 2.01 0 1.02 0 0 Z " fill="#DAF1DD" transform="translate(60,31)"/>
<path d="M0 0 C0.33 0 0.66 0 1 0 C1.25 6.625 1.25 6.625 -1 10 C-1.99 10 -2.98 10 -4 10 C-3.67 9.01 -3.34 8.02 -3 7 C-2.34 6.67 -1.68 6.34 -1 6 C-0.34227572 2.97065509 -0.34227572 2.97065509 0 0 Z " fill="#CBE2CF" transform="translate(100,18)"/>
<path d="M0 0 C0.33 1.32 0.66 2.64 1 4 C-0.98 4.99 -0.98 4.99 -3 6 C-2.625 3.5625 -2.625 3.5625 -2 1 C-1.34 0.67 -0.68 0.34 0 0 Z " fill="#46814F" transform="translate(84,16)"/>
<path d="M0 0 C-0.33 1.98 -0.66 3.96 -1 6 C-1.66 6 -2.32 6 -3 6 C-3.33 6.99 -3.66 7.98 -4 9 C-4 7.68 -4 6.36 -4 5 C-3.34 5 -2.68 5 -2 5 C-2 4.34 -2 3.68 -2 3 C-2.99 2.67 -3.98 2.34 -5 2 C-2 0 -2 0 0 0 Z " fill="#709276" transform="translate(89,11)"/>
</svg>
